<svg fill="none" xmlns="http://www.w3.org/2000/svg" viewBox="0 0 242 144"><g clip-path="url(#a)"><path fill="#02001D" d="M0 0h242v144H0z"/><g opacity=".2" stroke="#F1F8FF" stroke-width=".5" stroke-miterlimit="10"><path d="M.86 39.878c12.073 0 21.86-9.676 21.86-21.611C22.72 6.33 12.933-3.345.86-3.345-11.213-3.345-21 6.331-21 18.267c0 11.935 9.787 21.611 21.86 21.611ZM44.58 39.878c12.073 0 21.86-9.676 21.86-21.611 0-11.936-9.787-21.612-21.86-21.612-12.073 0-21.86 9.676-21.86 21.612 0 11.935 9.787 21.611 21.86 21.611ZM88.3 39.878c12.073 0 21.86-9.676 21.86-21.611 0-11.936-9.787-21.612-21.86-21.612-12.073 0-21.86 9.676-21.86 21.612 0 11.935 9.787 21.611 21.86 21.611Z"/><path d="M131.839 39.878c12.073 0 21.86-9.676 21.86-21.611 0-11.936-9.787-21.612-21.86-21.612-12.073 0-21.86 9.676-21.86 21.612 0 11.935 9.787 21.611 21.86 21.611ZM175.56 39.878c12.073 0 21.86-9.676 21.86-21.611 0-11.936-9.787-21.612-21.86-21.612-12.073 0-21.86 9.676-21.86 21.612 0 11.935 9.787 21.611 21.86 21.611Z"/><path d="M219.279 39.878c12.073 0 21.86-9.676 21.86-21.611 0-11.936-9.787-21.612-21.86-21.612-12.073 0-21.86 9.676-21.86 21.612 0 11.935 9.787 21.611 21.86 21.611ZM22.72 18.267c12.073 0 21.86-9.676 21.86-21.611 0-11.936-9.787-21.612-21.86-21.612C10.647-24.956.86-15.28.86-3.344c0 11.935 9.787 21.611 21.86 21.611ZM66.44 18.267c12.072 0 21.86-9.676 21.86-21.611 0-11.936-9.788-21.612-21.86-21.612-12.074 0-21.86 9.676-21.86 21.612 0 11.935 9.786 21.611 21.86 21.611Z"/><path d="M110.16 18.267c12.073 0 21.86-9.676 21.86-21.611 0-11.936-9.787-21.612-21.86-21.612-12.072 0-21.86 9.676-21.86 21.612 0 11.935 9.788 21.611 21.86 21.611Z"/><path d="M153.7 18.267c12.072 0 21.86-9.676 21.86-21.611 0-11.936-9.788-21.612-21.86-21.612-12.073 0-21.861 9.676-21.861 21.612 0 11.935 9.788 21.611 21.861 21.611Z"/><path d="M197.419 18.267c12.073 0 21.86-9.676 21.86-21.611 0-11.936-9.787-21.612-21.86-21.612-12.073 0-21.86 9.676-21.86 21.612 0 11.935 9.787 21.611 21.86 21.611ZM241.14 18.267c12.073 0 21.86-9.676 21.86-21.611 0-11.936-9.787-21.612-21.86-21.612-12.073 0-21.86 9.676-21.86 21.612 0 11.935 9.787 21.611 21.86 21.611ZM.86 83.1c12.073 0 21.86-9.676 21.86-21.611 0-11.936-9.787-21.612-21.86-21.612-12.073 0-21.86 9.676-21.86 21.612C-21 73.424-11.213 83.1.86 83.1ZM44.58 83.1c12.073 0 21.86-9.676 21.86-21.611 0-11.936-9.787-21.612-21.86-21.612-12.073 0-21.86 9.676-21.86 21.612 0 11.935 9.787 21.611 21.86 21.611ZM88.3 83.1c12.073 0 21.86-9.676 21.86-21.611 0-11.936-9.787-21.612-21.86-21.612-12.073 0-21.86 9.676-21.86 21.612 0 11.935 9.787 21.611 21.86 21.611Z"/><path d="M131.839 83.1c12.073 0 21.86-9.675 21.86-21.61 0-11.936-9.787-21.612-21.86-21.612-12.073 0-21.86 9.676-21.86 21.611 0 11.936 9.787 21.612 21.86 21.612ZM175.56 83.1c12.073 0 21.86-9.675 21.86-21.61 0-11.936-9.787-21.612-21.86-21.612-12.073 0-21.86 9.676-21.86 21.611 0 11.936 9.787 21.612 21.86 21.612Z"/><path d="M219.279 83.1c12.073 0 21.86-9.675 21.86-21.61 0-11.936-9.787-21.612-21.86-21.612-12.073 0-21.86 9.676-21.86 21.611 0 11.936 9.787 21.612 21.86 21.612ZM22.72 61.49c12.073 0 21.86-9.676 21.86-21.612 0-11.936-9.787-21.611-21.86-21.611-12.073 0-21.86 9.675-21.86 21.611s9.787 21.611 21.86 21.611ZM66.44 61.49c12.073 0 21.86-9.676 21.86-21.612 0-11.936-9.787-21.611-21.86-21.611-12.073 0-21.86 9.675-21.86 21.611s9.787 21.611 21.86 21.611Z"/><path d="M110.16 61.49c12.073 0 21.86-9.676 21.86-21.612 0-11.936-9.787-21.611-21.86-21.611-12.072 0-21.86 9.675-21.86 21.611s9.788 21.611 21.86 21.611Z"/><path d="M153.7 61.49c12.072 0 21.86-9.676 21.86-21.612 0-11.936-9.788-21.611-21.86-21.611-12.073 0-21.861 9.675-21.861 21.611s9.788 21.611 21.861 21.611Z"/><path d="M197.419 61.49c12.073 0 21.86-9.676 21.86-21.612 0-11.936-9.787-21.611-21.86-21.611-12.073 0-21.86 9.675-21.86 21.611s9.787 21.611 21.86 21.611ZM241.14 61.49c12.073 0 21.86-9.676 21.86-21.612 0-11.936-9.787-21.611-21.86-21.611-12.073 0-21.86 9.675-21.86 21.611s9.787 21.611 21.86 21.611ZM.86 126.382c12.073 0 21.86-9.676 21.86-21.612 0-11.935-9.787-21.611-21.86-21.611-12.073 0-21.86 9.676-21.86 21.611 0 11.936 9.787 21.612 21.86 21.612ZM44.58 126.382c12.073 0 21.86-9.676 21.86-21.612 0-11.935-9.787-21.611-21.86-21.611-12.073 0-21.86 9.676-21.86 21.611 0 11.936 9.787 21.612 21.86 21.612ZM88.3 126.381c12.073 0 21.86-9.676 21.86-21.611 0-11.936-9.787-21.612-21.86-21.612-12.073 0-21.86 9.676-21.86 21.612 0 11.935 9.787 21.611 21.86 21.611Z"/><path d="M131.839 126.382c12.073 0 21.86-9.676 21.86-21.612 0-11.935-9.787-21.611-21.86-21.611-12.073 0-21.86 9.676-21.86 21.611 0 11.936 9.787 21.612 21.86 21.612ZM175.56 126.381c12.073 0 21.86-9.676 21.86-21.611 0-11.936-9.787-21.612-21.86-21.612-12.073 0-21.86 9.676-21.86 21.612 0 11.935 9.787 21.611 21.86 21.611Z"/><path d="M219.279 126.381c12.073 0 21.86-9.676 21.86-21.611 0-11.936-9.787-21.612-21.86-21.612-12.073 0-21.86 9.676-21.86 21.612 0 11.935 9.787 21.611 21.86 21.611ZM22.72 104.948c12.073 0 21.86-9.675 21.86-21.611s-9.787-21.611-21.86-21.611C10.647 61.726.86 71.4.86 83.336c0 11.937 9.787 21.612 21.86 21.612ZM66.44 104.948c12.072 0 21.86-9.675 21.86-21.611s-9.788-21.611-21.86-21.611c-12.074 0-21.86 9.675-21.86 21.61 0 11.937 9.786 21.612 21.86 21.612Z"/><path d="M110.16 104.948c12.073 0 21.86-9.675 21.86-21.611s-9.787-21.611-21.86-21.611c-12.072 0-21.86 9.675-21.86 21.61 0 11.937 9.788 21.612 21.86 21.612Z"/><path d="M153.7 104.948c12.072 0 21.86-9.675 21.86-21.611s-9.788-21.611-21.86-21.611c-12.073 0-21.861 9.675-21.861 21.61 0 11.937 9.788 21.612 21.861 21.612Z"/><path d="M197.419 104.948c12.073 0 21.86-9.675 21.86-21.611s-9.787-21.611-21.86-21.611c-12.073 0-21.86 9.675-21.86 21.61 0 11.937 9.787 21.612 21.86 21.612ZM241.14 104.948c12.073 0 21.86-9.675 21.86-21.611s-9.787-21.611-21.86-21.611c-12.073 0-21.86 9.675-21.86 21.61 0 11.937 9.787 21.612 21.86 21.612ZM.86 169.604c12.073 0 21.86-9.676 21.86-21.612 0-11.935-9.787-21.611-21.86-21.611-12.073 0-21.86 9.676-21.86 21.611 0 11.936 9.787 21.612 21.86 21.612ZM44.58 169.604c12.073 0 21.86-9.676 21.86-21.612 0-11.935-9.787-21.611-21.86-21.611-12.073 0-21.86 9.676-21.86 21.611 0 11.936 9.787 21.612 21.86 21.612ZM88.3 169.604c12.073 0 21.86-9.676 21.86-21.612 0-11.935-9.787-21.611-21.86-21.611-12.073 0-21.86 9.676-21.86 21.611 0 11.936 9.787 21.612 21.86 21.612Z"/><path d="M131.839 169.604c12.073 0 21.86-9.676 21.86-21.612 0-11.935-9.787-21.611-21.86-21.611-12.073 0-21.86 9.676-21.86 21.611 0 11.936 9.787 21.612 21.86 21.612ZM175.56 169.604c12.073 0 21.86-9.676 21.86-21.612 0-11.935-9.787-21.611-21.86-21.611-12.073 0-21.86 9.676-21.86 21.611 0 11.936 9.787 21.612 21.86 21.612Z"/><path d="M219.279 169.604c12.073 0 21.86-9.676 21.86-21.612 0-11.935-9.787-21.611-21.86-21.611-12.073 0-21.86 9.676-21.86 21.611 0 11.936 9.787 21.612 21.86 21.612ZM22.72 147.993c12.073 0 21.86-9.676 21.86-21.611 0-11.936-9.787-21.612-21.86-21.612-12.073 0-21.86 9.676-21.86 21.612 0 11.935 9.787 21.611 21.86 21.611ZM66.44 147.993c12.072 0 21.86-9.676 21.86-21.611 0-11.936-9.788-21.612-21.86-21.612-12.074 0-21.86 9.676-21.86 21.612 0 11.935 9.786 21.611 21.86 21.611Z"/><path d="M110.16 147.993c12.073 0 21.86-9.676 21.86-21.611 0-11.936-9.787-21.612-21.86-21.612-12.072 0-21.86 9.676-21.86 21.612 0 11.935 9.788 21.611 21.86 21.611Z"/><path d="M153.7 147.993c12.072 0 21.86-9.676 21.86-21.611 0-11.936-9.788-21.612-21.86-21.612-12.073 0-21.861 9.676-21.861 21.612 0 11.935 9.788 21.611 21.861 21.611Z"/><path d="M197.419 147.993c12.073 0 21.86-9.676 21.86-21.611 0-11.936-9.787-21.612-21.86-21.612-12.073 0-21.86 9.676-21.86 21.612 0 11.935 9.787 21.611 21.86 21.611ZM241.14 147.993c12.073 0 21.86-9.676 21.86-21.611 0-11.936-9.787-21.612-21.86-21.612-12.073 0-21.86 9.676-21.86 21.612 0 11.935 9.787 21.611 21.86 21.611Z"/></g><path d="M131.396 92.188c-.167.089-.153.117.007.035a.44.44 0 0 0 .134-.085c0-.03 0-.03-.141.05Zm.337-.183c-.08.066-.08.066.016.023a.35.35 0 0 0 .096-.066c0-.038-.023-.03-.112.043Zm.22-.132c-.08.066-.08.066.015.023a.352.352 0 0 0 .096-.068c0-.035-.023-.028-.111.045Zm.222-.13c-.08.065-.08.065.013.02.052-.028.095-.057.095-.066 0-.035-.022-.028-.108.045Zm.3-.199c-.154.103-.207.169-.067.096.095-.058.255-.185.227-.185-.061.023-.111.06-.162.089h.002ZM119.027 50.01c-.103.007-.411.035-.681.058-6.395.58-12.378 4.022-16.171 9.325a22.255 22.255 0 0 0-3.971 9.828C98.023 70.457 98 70.823 98 72.5c0 1.676.022 2.036.204 3.274 1.225 8.453 7.238 15.548 15.388 18.178 1.467.468 3.004.792 4.754.99.681.073 3.624.073 4.305 0 3.026-.338 5.581-1.084 8.109-2.374.388-.197.462-.249.41-.292a466.095 466.095 0 0 1-3.669-4.915l-3.596-4.856-4.504-6.672a578.617 578.617 0 0 0-4.541-6.671c-.015 0-.035 2.966-.043 6.582-.016 6.335-.016 6.593-.096 6.739a.802.802 0 0 1-.388.403c-.139.067-.264.08-.929.08h-.761l-.198-.123a.835.835 0 0 1-.293-.322l-.096-.199.007-8.818.016-8.818.139-.176c.089-.108.198-.197.322-.263.184-.088.258-.103 1.018-.103.893 0 1.041.036 1.276.293a850.193 850.193 0 0 1 5.426 8.173c2.924 4.432 6.915 10.48 8.876 13.447l3.568 5.399.176-.117a22.993 22.993 0 0 0 4.619-4.057 22.407 22.407 0 0 0 5.297-11.498c.182-1.238.204-1.605.204-3.281 0-1.678-.022-2.036-.204-3.274-1.225-8.452-7.238-15.548-15.388-18.18a23.871 23.871 0 0 0-4.68-.98c-.426-.043-3.334-.095-3.7-.057l-.001-.003Zm9.206 13.608a.873.873 0 0 1 .446.512c.038.118.045 2.564.038 8.072l-.015 7.908-1.391-2.137-1.399-2.14v-5.74c0-3.723.015-5.81.035-5.912a.94.94 0 0 1 .44-.556c.174-.088.242-.095.938-.095.651 0 .761.007.907.088h.001Z" fill="#fff"/></g><defs><clipPath id="a"><path fill="#fff" d="M0 0h242v144H0z"/></clipPath></defs></svg>