<svg fill="none" xmlns="http://www.w3.org/2000/svg" viewBox="0 0 242 144"><g clip-path="url(#a)"><path fill="#4C57C5" d="M0 0h242v144H0z"/><g opacity=".2" stroke="#F1F8FF" stroke-width=".5" stroke-miterlimit="10"><path d="M.86 39.878c12.073 0 21.86-9.676 21.86-21.611C22.72 6.33 12.933-3.345.86-3.345-11.213-3.345-21 6.331-21 18.267c0 11.935 9.787 21.611 21.86 21.611ZM44.58 39.878c12.073 0 21.86-9.676 21.86-21.611 0-11.936-9.787-21.612-21.86-21.612-12.073 0-21.86 9.676-21.86 21.612 0 11.935 9.787 21.611 21.86 21.611ZM88.3 39.878c12.073 0 21.86-9.676 21.86-21.611 0-11.936-9.787-21.612-21.86-21.612-12.073 0-21.86 9.676-21.86 21.612 0 11.935 9.787 21.611 21.86 21.611Z"/><path d="M131.839 39.878c12.073 0 21.86-9.676 21.86-21.611 0-11.936-9.787-21.612-21.86-21.612-12.073 0-21.86 9.676-21.86 21.612 0 11.935 9.787 21.611 21.86 21.611ZM175.56 39.878c12.073 0 21.86-9.676 21.86-21.611 0-11.936-9.787-21.612-21.86-21.612-12.073 0-21.86 9.676-21.86 21.612 0 11.935 9.787 21.611 21.86 21.611Z"/><path d="M219.279 39.878c12.073 0 21.86-9.676 21.86-21.611 0-11.936-9.787-21.612-21.86-21.612-12.073 0-21.86 9.676-21.86 21.612 0 11.935 9.787 21.611 21.86 21.611ZM22.72 18.267c12.073 0 21.86-9.676 21.86-21.611 0-11.936-9.787-21.612-21.86-21.612C10.647-24.956.86-15.28.86-3.344c0 11.935 9.787 21.611 21.86 21.611ZM66.44 18.267c12.072 0 21.86-9.676 21.86-21.611 0-11.936-9.788-21.612-21.86-21.612-12.074 0-21.86 9.676-21.86 21.612 0 11.935 9.786 21.611 21.86 21.611Z"/><path d="M110.16 18.267c12.073 0 21.86-9.676 21.86-21.611 0-11.936-9.787-21.612-21.86-21.612-12.072 0-21.86 9.676-21.86 21.612 0 11.935 9.788 21.611 21.86 21.611Z"/><path d="M153.7 18.267c12.072 0 21.86-9.676 21.86-21.611 0-11.936-9.788-21.612-21.86-21.612-12.073 0-21.861 9.676-21.861 21.612 0 11.935 9.788 21.611 21.861 21.611Z"/><path d="M197.419 18.267c12.073 0 21.86-9.676 21.86-21.611 0-11.936-9.787-21.612-21.86-21.612-12.073 0-21.86 9.676-21.86 21.612 0 11.935 9.787 21.611 21.86 21.611ZM241.14 18.267c12.073 0 21.86-9.676 21.86-21.611 0-11.936-9.787-21.612-21.86-21.612-12.073 0-21.86 9.676-21.86 21.612 0 11.935 9.787 21.611 21.86 21.611ZM.86 83.1c12.073 0 21.86-9.676 21.86-21.611 0-11.936-9.787-21.612-21.86-21.612-12.073 0-21.86 9.676-21.86 21.612C-21 73.424-11.213 83.1.86 83.1ZM44.58 83.1c12.073 0 21.86-9.676 21.86-21.611 0-11.936-9.787-21.612-21.86-21.612-12.073 0-21.86 9.676-21.86 21.612 0 11.935 9.787 21.611 21.86 21.611ZM88.3 83.1c12.073 0 21.86-9.676 21.86-21.611 0-11.936-9.787-21.612-21.86-21.612-12.073 0-21.86 9.676-21.86 21.612 0 11.935 9.787 21.611 21.86 21.611Z"/><path d="M131.839 83.1c12.073 0 21.86-9.675 21.86-21.61 0-11.936-9.787-21.612-21.86-21.612-12.073 0-21.86 9.676-21.86 21.611 0 11.936 9.787 21.612 21.86 21.612ZM175.56 83.1c12.073 0 21.86-9.675 21.86-21.61 0-11.936-9.787-21.612-21.86-21.612-12.073 0-21.86 9.676-21.86 21.611 0 11.936 9.787 21.612 21.86 21.612Z"/><path d="M219.279 83.1c12.073 0 21.86-9.675 21.86-21.61 0-11.936-9.787-21.612-21.86-21.612-12.073 0-21.86 9.676-21.86 21.611 0 11.936 9.787 21.612 21.86 21.612ZM22.72 61.49c12.073 0 21.86-9.676 21.86-21.612 0-11.936-9.787-21.611-21.86-21.611-12.073 0-21.86 9.675-21.86 21.611s9.787 21.611 21.86 21.611ZM66.44 61.49c12.073 0 21.86-9.676 21.86-21.612 0-11.936-9.787-21.611-21.86-21.611-12.073 0-21.86 9.675-21.86 21.611s9.787 21.611 21.86 21.611Z"/><path d="M110.16 61.49c12.073 0 21.86-9.676 21.86-21.612 0-11.936-9.787-21.611-21.86-21.611-12.072 0-21.86 9.675-21.86 21.611s9.788 21.611 21.86 21.611Z"/><path d="M153.7 61.49c12.072 0 21.86-9.676 21.86-21.612 0-11.936-9.788-21.611-21.86-21.611-12.073 0-21.861 9.675-21.861 21.611s9.788 21.611 21.861 21.611Z"/><path d="M197.419 61.49c12.073 0 21.86-9.676 21.86-21.612 0-11.936-9.787-21.611-21.86-21.611-12.073 0-21.86 9.675-21.86 21.611s9.787 21.611 21.86 21.611ZM241.14 61.49c12.073 0 21.86-9.676 21.86-21.612 0-11.936-9.787-21.611-21.86-21.611-12.073 0-21.86 9.675-21.86 21.611s9.787 21.611 21.86 21.611ZM.86 126.382c12.073 0 21.86-9.676 21.86-21.612 0-11.935-9.787-21.611-21.86-21.611-12.073 0-21.86 9.676-21.86 21.611 0 11.936 9.787 21.612 21.86 21.612ZM44.58 126.382c12.073 0 21.86-9.676 21.86-21.612 0-11.935-9.787-21.611-21.86-21.611-12.073 0-21.86 9.676-21.86 21.611 0 11.936 9.787 21.612 21.86 21.612ZM88.3 126.381c12.073 0 21.86-9.676 21.86-21.611 0-11.936-9.787-21.612-21.86-21.612-12.073 0-21.86 9.676-21.86 21.612 0 11.935 9.787 21.611 21.86 21.611Z"/><path d="M131.839 126.382c12.073 0 21.86-9.676 21.86-21.612 0-11.935-9.787-21.611-21.86-21.611-12.073 0-21.86 9.676-21.86 21.611 0 11.936 9.787 21.612 21.86 21.612ZM175.56 126.381c12.073 0 21.86-9.676 21.86-21.611 0-11.936-9.787-21.612-21.86-21.612-12.073 0-21.86 9.676-21.86 21.612 0 11.935 9.787 21.611 21.86 21.611Z"/><path d="M219.279 126.381c12.073 0 21.86-9.676 21.86-21.611 0-11.936-9.787-21.612-21.86-21.612-12.073 0-21.86 9.676-21.86 21.612 0 11.935 9.787 21.611 21.86 21.611ZM22.72 104.948c12.073 0 21.86-9.675 21.86-21.611s-9.787-21.611-21.86-21.611C10.647 61.726.86 71.4.86 83.336c0 11.937 9.787 21.612 21.86 21.612ZM66.44 104.948c12.072 0 21.86-9.675 21.86-21.611s-9.788-21.611-21.86-21.611c-12.074 0-21.86 9.675-21.86 21.61 0 11.937 9.786 21.612 21.86 21.612Z"/><path d="M110.16 104.948c12.073 0 21.86-9.675 21.86-21.611s-9.787-21.611-21.86-21.611c-12.072 0-21.86 9.675-21.86 21.61 0 11.937 9.788 21.612 21.86 21.612Z"/><path d="M153.7 104.948c12.072 0 21.86-9.675 21.86-21.611s-9.788-21.611-21.86-21.611c-12.073 0-21.861 9.675-21.861 21.61 0 11.937 9.788 21.612 21.861 21.612Z"/><path d="M197.419 104.948c12.073 0 21.86-9.675 21.86-21.611s-9.787-21.611-21.86-21.611c-12.073 0-21.86 9.675-21.86 21.61 0 11.937 9.787 21.612 21.86 21.612ZM241.14 104.948c12.073 0 21.86-9.675 21.86-21.611s-9.787-21.611-21.86-21.611c-12.073 0-21.86 9.675-21.86 21.61 0 11.937 9.787 21.612 21.86 21.612ZM.86 169.604c12.073 0 21.86-9.676 21.86-21.612 0-11.935-9.787-21.611-21.86-21.611-12.073 0-21.86 9.676-21.86 21.611 0 11.936 9.787 21.612 21.86 21.612ZM44.58 169.604c12.073 0 21.86-9.676 21.86-21.612 0-11.935-9.787-21.611-21.86-21.611-12.073 0-21.86 9.676-21.86 21.611 0 11.936 9.787 21.612 21.86 21.612ZM88.3 169.604c12.073 0 21.86-9.676 21.86-21.612 0-11.935-9.787-21.611-21.86-21.611-12.073 0-21.86 9.676-21.86 21.611 0 11.936 9.787 21.612 21.86 21.612Z"/><path d="M131.839 169.604c12.073 0 21.86-9.676 21.86-21.612 0-11.935-9.787-21.611-21.86-21.611-12.073 0-21.86 9.676-21.86 21.611 0 11.936 9.787 21.612 21.86 21.612ZM175.56 169.604c12.073 0 21.86-9.676 21.86-21.612 0-11.935-9.787-21.611-21.86-21.611-12.073 0-21.86 9.676-21.86 21.611 0 11.936 9.787 21.612 21.86 21.612Z"/><path d="M219.279 169.604c12.073 0 21.86-9.676 21.86-21.612 0-11.935-9.787-21.611-21.86-21.611-12.073 0-21.86 9.676-21.86 21.611 0 11.936 9.787 21.612 21.86 21.612ZM22.72 147.993c12.073 0 21.86-9.676 21.86-21.611 0-11.936-9.787-21.612-21.86-21.612-12.073 0-21.86 9.676-21.86 21.612 0 11.935 9.787 21.611 21.86 21.611ZM66.44 147.993c12.072 0 21.86-9.676 21.86-21.611 0-11.936-9.788-21.612-21.86-21.612-12.074 0-21.86 9.676-21.86 21.612 0 11.935 9.786 21.611 21.86 21.611Z"/><path d="M110.16 147.993c12.073 0 21.86-9.676 21.86-21.611 0-11.936-9.787-21.612-21.86-21.612-12.072 0-21.86 9.676-21.86 21.612 0 11.935 9.788 21.611 21.86 21.611Z"/><path d="M153.7 147.993c12.072 0 21.86-9.676 21.86-21.611 0-11.936-9.788-21.612-21.86-21.612-12.073 0-21.861 9.676-21.861 21.612 0 11.935 9.788 21.611 21.861 21.611Z"/><path d="M197.419 147.993c12.073 0 21.86-9.676 21.86-21.611 0-11.936-9.787-21.612-21.86-21.612-12.073 0-21.86 9.676-21.86 21.612 0 11.935 9.787 21.611 21.86 21.611ZM241.14 147.993c12.073 0 21.86-9.676 21.86-21.611 0-11.936-9.787-21.612-21.86-21.612-12.073 0-21.86 9.676-21.86 21.612 0 11.935 9.787 21.611 21.86 21.611Z"/></g><path opacity=".6" d="M114.568 81.193c-2.378-2.238-3.776-5.316-3.776-8.813 0-3.497 1.398-6.574 3.636-8.812 1.959-1.958 1.959-5.036 0-6.994-1.958-1.958-5.035-1.958-6.994 0C103.518 60.63 101 66.226 101 72.38c0 6.155 2.518 11.75 6.574 15.807 1.959 1.958 5.036 1.958 6.994 0 1.819-1.959 1.819-5.036 0-6.994Z" fill="#fff"/><path d="M114.569 63.568c2.238-2.378 5.315-3.776 8.812-3.776a12.36 12.36 0 0 1 8.813 3.636c1.958 1.959 5.035 1.959 6.994 0 1.958-1.958 1.958-5.035 0-6.993-4.057-3.917-9.652-6.435-15.807-6.435-6.155 0-11.75 2.518-15.806 6.574-1.959 1.959-1.959 5.036 0 6.994 1.958 1.819 5.035 1.819 6.994 0ZM132.194 81.193c-2.238 2.378-5.315 3.777-8.812 3.777a12.355 12.355 0 0 1-8.812-3.637c-1.959-1.958-5.036-1.958-6.994 0-1.959 1.959-1.959 5.036 0 6.994 4.056 3.917 9.651 6.435 15.806 6.435 6.155 0 11.75-2.518 15.806-6.575 1.959-1.958 1.959-5.035 0-6.994-1.958-1.818-5.035-1.818-6.994 0Z" fill="#fff"/><path d="M111.072 64.968a4.896 4.896 0 1 0 0-9.792 4.896 4.896 0 0 0 0 9.792ZM111.117 89.632a4.896 4.896 0 1 0 0-9.791 4.896 4.896 0 0 0 0 9.791Z" fill="#fff"/></g><defs><clipPath id="a"><path fill="#fff" d="M0 0h242v144H0z"/></clipPath></defs></svg>