<svg fill="none" xmlns="http://www.w3.org/2000/svg" viewBox="0 0 640 400"><g clip-path="url(#a)"><path fill="#60BEC4" d="M0 0h640v400H0z"/><g opacity=".2" stroke="#F1F8FF" stroke-width=".5" stroke-miterlimit="10"><path d="M.19 113.168c32.139 0 58.191-25.756 58.191-57.529 0-31.772-26.052-57.528-58.19-57.528S-58 23.867-58 55.639c0 31.773 26.053 57.529 58.19 57.529ZM116.573 113.168c32.138 0 58.19-25.756 58.19-57.529 0-31.772-26.052-57.528-58.19-57.528S58.382 23.867 58.382 55.639c0 31.773 26.053 57.529 58.191 57.529Z"/><path d="M232.952 113.168c32.138 0 58.191-25.756 58.191-57.529 0-31.772-26.053-57.528-58.191-57.528-32.137 0-58.19 25.756-58.19 57.528 0 31.773 26.053 57.529 58.19 57.529Z"/><path d="M348.853 113.168c32.138 0 58.191-25.756 58.191-57.529 0-31.772-26.053-57.528-58.191-57.528-32.137 0-58.19 25.756-58.19 57.528 0 31.773 26.053 57.529 58.19 57.529ZM465.237 113.168c32.138 0 58.19-25.756 58.19-57.529 0-31.772-26.052-57.528-58.19-57.528s-58.191 25.756-58.191 57.528c0 31.773 26.053 57.529 58.191 57.529Z"/><path d="M581.616 113.168c32.138 0 58.191-25.756 58.191-57.529 0-31.772-26.053-57.528-58.191-57.528-32.137 0-58.19 25.756-58.19 57.528 0 31.773 26.053 57.529 58.19 57.529ZM58.382 55.64c32.138 0 58.191-25.756 58.191-57.528S90.52-59.417 58.383-59.417C26.243-59.417.191-33.66.191-1.887c0 31.771 26.052 57.528 58.19 57.528Z"/><path d="M174.761 55.64c32.138 0 58.191-25.756 58.191-57.528s-26.053-57.529-58.191-57.529c-32.138 0-58.191 25.757-58.191 57.53 0 31.771 26.053 57.528 58.191 57.528ZM291.145 55.64c32.138 0 58.191-25.756 58.191-57.528s-26.053-57.529-58.191-57.529c-32.137 0-58.19 25.757-58.19 57.53 0 31.771 26.053 57.528 58.19 57.528Z"/><path d="M407.045 55.64c32.138 0 58.191-25.756 58.191-57.528s-26.053-57.529-58.191-57.529c-32.138 0-58.191 25.757-58.191 57.53 0 31.771 26.053 57.528 58.191 57.528Z"/><path d="M523.426 55.64c32.138 0 58.191-25.756 58.191-57.528s-26.053-57.529-58.191-57.529c-32.138 0-58.191 25.757-58.191 57.53 0 31.771 26.053 57.528 58.191 57.528ZM639.809 55.64C671.947 55.64 698 29.885 698-1.887s-26.053-57.529-58.191-57.529c-32.138 0-58.191 25.757-58.191 57.53 0 31.771 26.053 57.528 58.191 57.528ZM.19 228.224c32.139 0 58.191-25.756 58.191-57.528 0-31.773-26.052-57.529-58.19-57.529S-58 138.923-58 170.696c0 31.772 26.053 57.528 58.19 57.528ZM116.573 228.224c32.138 0 58.19-25.756 58.19-57.528 0-31.773-26.052-57.529-58.19-57.529s-58.191 25.756-58.191 57.529c0 31.772 26.053 57.528 58.191 57.528Z"/><path d="M232.952 228.224c32.138 0 58.191-25.756 58.191-57.528 0-31.773-26.053-57.529-58.191-57.529-32.137 0-58.19 25.756-58.19 57.529 0 31.772 26.053 57.528 58.19 57.528Z"/><path d="M348.853 228.226c32.138 0 58.191-25.756 58.191-57.528 0-31.773-26.053-57.529-58.191-57.529-32.137 0-58.19 25.756-58.19 57.529 0 31.772 26.053 57.528 58.19 57.528ZM465.237 228.226c32.138 0 58.19-25.756 58.19-57.528 0-31.773-26.052-57.529-58.19-57.529s-58.191 25.756-58.191 57.529c0 31.772 26.053 57.528 58.191 57.528Z"/><path d="M581.616 228.226c32.138 0 58.191-25.756 58.191-57.528 0-31.773-26.053-57.529-58.191-57.529-32.137 0-58.19 25.756-58.19 57.529 0 31.772 26.053 57.528 58.19 57.528ZM58.382 170.697c32.138 0 58.191-25.756 58.191-57.529 0-31.772-26.053-57.529-58.19-57.529C26.243 55.64.191 81.396.191 113.168c0 31.773 26.052 57.529 58.19 57.529Z"/><path d="M174.763 170.697c32.138 0 58.191-25.756 58.191-57.529 0-31.772-26.053-57.529-58.191-57.529-32.138 0-58.191 25.757-58.191 57.529 0 31.773 26.053 57.529 58.191 57.529ZM291.145 170.697c32.138 0 58.191-25.756 58.191-57.529 0-31.772-26.053-57.529-58.191-57.529-32.137 0-58.19 25.757-58.19 57.529 0 31.773 26.053 57.529 58.19 57.529Z"/><path d="M407.045 170.697c32.138 0 58.191-25.756 58.191-57.529 0-31.772-26.053-57.529-58.191-57.529-32.138 0-58.191 25.757-58.191 57.529 0 31.773 26.053 57.529 58.191 57.529Z"/><path d="M523.426 170.697c32.138 0 58.191-25.756 58.191-57.529 0-31.772-26.053-57.529-58.191-57.529-32.138 0-58.191 25.757-58.191 57.529 0 31.773 26.053 57.529 58.191 57.529ZM639.809 170.697c32.138 0 58.191-25.756 58.191-57.529 0-31.772-26.053-57.529-58.191-57.529-32.138 0-58.191 25.757-58.191 57.529 0 31.773 26.053 57.529 58.191 57.529ZM.19 343.439c32.139 0 58.191-25.757 58.191-57.529 0-31.773-26.052-57.529-58.19-57.529S-58 254.137-58 285.91c0 31.772 26.053 57.529 58.19 57.529ZM116.573 343.439c32.138 0 58.19-25.757 58.19-57.529 0-31.773-26.052-57.529-58.19-57.529s-58.191 25.756-58.191 57.529c0 31.772 26.053 57.529 58.191 57.529Z"/><path d="M232.952 343.437c32.138 0 58.191-25.757 58.191-57.529 0-31.773-26.053-57.529-58.191-57.529-32.137 0-58.19 25.756-58.19 57.529 0 31.772 26.053 57.529 58.19 57.529Z"/><path d="M348.853 343.439c32.138 0 58.191-25.757 58.191-57.529 0-31.773-26.053-57.529-58.191-57.529-32.137 0-58.19 25.756-58.19 57.529 0 31.772 26.053 57.529 58.19 57.529ZM465.237 343.437c32.138 0 58.19-25.757 58.19-57.529 0-31.773-26.052-57.529-58.19-57.529s-58.191 25.756-58.191 57.529c0 31.772 26.053 57.529 58.191 57.529Z"/><path d="M581.616 343.437c32.138 0 58.191-25.757 58.191-57.529 0-31.773-26.053-57.529-58.191-57.529-32.137 0-58.19 25.756-58.19 57.529 0 31.772 26.053 57.529 58.19 57.529ZM58.382 286.384c32.138 0 58.191-25.757 58.191-57.529 0-31.773-26.053-57.529-58.19-57.529-32.139 0-58.191 25.756-58.191 57.529 0 31.772 26.052 57.529 58.19 57.529Z"/><path d="M174.761 286.384c32.138 0 58.191-25.757 58.191-57.529 0-31.773-26.053-57.529-58.191-57.529-32.138 0-58.191 25.756-58.191 57.529 0 31.772 26.053 57.529 58.191 57.529ZM291.145 286.384c32.138 0 58.191-25.757 58.191-57.529 0-31.773-26.053-57.529-58.191-57.529-32.137 0-58.19 25.756-58.19 57.529 0 31.772 26.053 57.529 58.19 57.529Z"/><path d="M407.045 286.384c32.138 0 58.191-25.757 58.191-57.529 0-31.773-26.053-57.529-58.191-57.529-32.138 0-58.191 25.756-58.191 57.529 0 31.772 26.053 57.529 58.191 57.529Z"/><path d="M523.426 286.384c32.138 0 58.191-25.757 58.191-57.529 0-31.773-26.053-57.529-58.191-57.529-32.138 0-58.191 25.756-58.191 57.529 0 31.772 26.053 57.529 58.191 57.529ZM639.809 286.384c32.138 0 58.191-25.757 58.191-57.529 0-31.773-26.053-57.529-58.191-57.529-32.138 0-58.191 25.756-58.191 57.529 0 31.772 26.053 57.529 58.191 57.529ZM.19 458.494c32.139 0 58.191-25.756 58.191-57.529 0-31.772-26.052-57.528-58.19-57.528S-58 369.193-58 400.965c0 31.773 26.053 57.529 58.19 57.529ZM116.573 458.494c32.138 0 58.19-25.756 58.19-57.529 0-31.772-26.052-57.528-58.19-57.528s-58.191 25.756-58.191 57.528c0 31.773 26.053 57.529 58.191 57.529Z"/><path d="M232.952 458.494c32.138 0 58.191-25.756 58.191-57.529 0-31.772-26.053-57.528-58.191-57.528-32.137 0-58.19 25.756-58.19 57.528 0 31.773 26.053 57.529 58.19 57.529Z"/><path d="M348.853 458.494c32.138 0 58.191-25.756 58.191-57.529 0-31.772-26.053-57.528-58.191-57.528-32.137 0-58.19 25.756-58.19 57.528 0 31.773 26.053 57.529 58.19 57.529ZM465.237 458.494c32.138 0 58.19-25.756 58.19-57.529 0-31.772-26.052-57.528-58.19-57.528s-58.191 25.756-58.191 57.528c0 31.773 26.053 57.529 58.191 57.529Z"/><path d="M581.616 458.494c32.138 0 58.191-25.756 58.191-57.529 0-31.772-26.053-57.528-58.191-57.528-32.137 0-58.19 25.756-58.19 57.528 0 31.773 26.053 57.529 58.19 57.529ZM58.382 400.967c32.138 0 58.191-25.756 58.191-57.529 0-31.772-26.053-57.529-58.19-57.529-32.139 0-58.191 25.757-58.191 57.529 0 31.773 26.052 57.529 58.19 57.529Z"/><path d="M174.761 400.967c32.138 0 58.191-25.756 58.191-57.529 0-31.772-26.053-57.529-58.191-57.529-32.138 0-58.191 25.757-58.191 57.529 0 31.773 26.053 57.529 58.191 57.529ZM291.145 400.967c32.138 0 58.191-25.756 58.191-57.529 0-31.772-26.053-57.529-58.191-57.529-32.137 0-58.19 25.757-58.19 57.529 0 31.773 26.053 57.529 58.19 57.529Z"/><path d="M407.045 400.967c32.138 0 58.191-25.756 58.191-57.529 0-31.772-26.053-57.529-58.191-57.529-32.138 0-58.191 25.757-58.191 57.529 0 31.773 26.053 57.529 58.191 57.529Z"/><path d="M523.426 400.967c32.138 0 58.191-25.756 58.191-57.529 0-31.772-26.053-57.529-58.191-57.529-32.138 0-58.191 25.757-58.191 57.529 0 31.773 26.053 57.529 58.191 57.529ZM639.809 400.967c32.138 0 58.191-25.756 58.191-57.529 0-31.772-26.053-57.529-58.191-57.529-32.138 0-58.191 25.757-58.191 57.529 0 31.773 26.053 57.529 58.191 57.529Z"/></g><path opacity=".6" d="M412.523 214.815c-4.027-3.79-6.395-9.001-6.395-14.923 0-5.922 2.368-11.133 6.158-14.923 3.316-3.316 3.316-8.527 0-11.843-3.316-3.317-8.527-3.317-11.843 0-6.633 6.869-10.896 16.344-10.896 26.766 0 10.423 4.263 19.897 11.133 26.767 3.316 3.316 8.527 3.316 11.843 0 3.079-3.316 3.079-8.528 0-11.844Z" fill="#fff"/><path d="M412.524 184.97c3.79-4.027 9.001-6.396 14.923-6.396 5.922 0 11.133 2.369 14.923 6.159 3.316 3.316 8.527 3.316 11.843 0 3.316-3.316 3.316-8.527 0-11.843-6.869-6.633-16.344-10.897-26.766-10.897-10.423 0-19.898 4.264-26.767 11.133-3.316 3.317-3.316 8.528 0 11.844 3.316 3.079 8.528 3.079 11.844 0ZM442.371 214.816c-3.79 4.027-9.001 6.396-14.923 6.396-5.922 0-11.133-2.369-14.923-6.159-3.316-3.316-8.527-3.316-11.843 0-3.317 3.316-3.317 8.527 0 11.844 6.869 6.632 16.344 10.896 26.766 10.896 10.423 0 19.897-4.264 26.767-11.133 3.316-3.316 3.316-8.528 0-11.844-3.316-3.079-8.528-3.079-11.844 0Z" fill="#fff"/><path d="M406.602 187.34a8.291 8.291 0 1 0 0-16.582 8.291 8.291 0 0 0 0 16.582ZM406.678 229.107a8.291 8.291 0 1 0 0-16.58 8.291 8.291 0 0 0 0 16.58ZM219.603 177.291h29.258v2.315h-26.576v17.418h24.992v2.315h-24.992v19.123h26.881v2.315h-29.563v-43.486Zm31.88 0h3.108l13.776 19.124 14.081-19.124L301.6 153l-31.465 45.425 16.214 22.352h-3.231l-14.751-20.342-14.812 20.342h-3.17l16.336-22.352-15.238-21.134Zm36.024 2.315v-2.315h33.342v2.315h-15.36v41.171h-2.682v-41.171h-15.3ZM183 177.291h3.353l46.229 68.846-19.104-25.361-27.674-40.196-.122 40.196H183v-43.485ZM320.578 217.763c.555 0 .959-.422.959-.969 0-.546-.404-.968-.959-.968a.945.945 0 0 0-.959.968c0 .547.411.969.959.969Zm2.636-2.548c0 1.612 1.167 2.665 2.87 2.665 1.813 0 2.909-1.086 2.909-2.971v-6.637h-1.461v6.631c0 1.046-.528 1.605-1.461 1.605-.835 0-1.403-.52-1.422-1.293h-1.435Zm7.691-.085c.104 1.677 1.507 2.75 3.594 2.75 2.231 0 3.627-1.125 3.627-2.919 0-1.41-.796-2.19-2.727-2.639l-1.037-.253c-1.226-.286-1.722-.67-1.722-1.339 0-.845.77-1.398 1.924-1.398 1.096 0 1.853.54 1.99 1.404h1.422c-.085-1.58-1.481-2.691-3.392-2.691-2.055 0-3.425 1.111-3.425 2.782 0 1.378.776 2.197 2.479 2.594l1.213.292c1.246.293 1.794.722 1.794 1.437 0 .832-.861 1.436-2.035 1.436-1.259 0-2.133-.565-2.257-1.456h-1.448Z" fill="#fff"/></g><defs><clipPath id="a"><path fill="#fff" d="M0 0h640v400H0z"/></clipPath></defs></svg>