<svg fill="none" xmlns="http://www.w3.org/2000/svg" viewBox="0 0 242 144"><g clip-path="url(#a)"><path fill="#FF364E" d="M0 0h242v144H0z"/><g opacity=".2" stroke="#F1F8FF" stroke-width=".5" stroke-miterlimit="10"><path d="M.86 39.878c12.073 0 21.86-9.676 21.86-21.611C22.72 6.33 12.933-3.345.86-3.345-11.213-3.345-21 6.331-21 18.267c0 11.935 9.787 21.611 21.86 21.611ZM44.58 39.878c12.073 0 21.86-9.676 21.86-21.611 0-11.936-9.787-21.612-21.86-21.612-12.073 0-21.86 9.676-21.86 21.612 0 11.935 9.787 21.611 21.86 21.611ZM88.3 39.878c12.073 0 21.86-9.676 21.86-21.611 0-11.936-9.787-21.612-21.86-21.612-12.073 0-21.86 9.676-21.86 21.612 0 11.935 9.787 21.611 21.86 21.611Z"/><path d="M131.839 39.878c12.073 0 21.86-9.676 21.86-21.611 0-11.936-9.787-21.612-21.86-21.612-12.073 0-21.86 9.676-21.86 21.612 0 11.935 9.787 21.611 21.86 21.611ZM175.56 39.878c12.073 0 21.86-9.676 21.86-21.611 0-11.936-9.787-21.612-21.86-21.612-12.073 0-21.86 9.676-21.86 21.612 0 11.935 9.787 21.611 21.86 21.611Z"/><path d="M219.279 39.878c12.073 0 21.86-9.676 21.86-21.611 0-11.936-9.787-21.612-21.86-21.612-12.073 0-21.86 9.676-21.86 21.612 0 11.935 9.787 21.611 21.86 21.611ZM22.72 18.267c12.073 0 21.86-9.676 21.86-21.611 0-11.936-9.787-21.612-21.86-21.612C10.647-24.956.86-15.28.86-3.344c0 11.935 9.787 21.611 21.86 21.611ZM66.44 18.267c12.072 0 21.86-9.676 21.86-21.611 0-11.936-9.788-21.612-21.86-21.612-12.074 0-21.86 9.676-21.86 21.612 0 11.935 9.786 21.611 21.86 21.611Z"/><path d="M110.16 18.267c12.073 0 21.86-9.676 21.86-21.611 0-11.936-9.787-21.612-21.86-21.612-12.072 0-21.86 9.676-21.86 21.612 0 11.935 9.788 21.611 21.86 21.611Z"/><path d="M153.7 18.267c12.072 0 21.86-9.676 21.86-21.611 0-11.936-9.788-21.612-21.86-21.612-12.073 0-21.861 9.676-21.861 21.612 0 11.935 9.788 21.611 21.861 21.611Z"/><path d="M197.419 18.267c12.073 0 21.86-9.676 21.86-21.611 0-11.936-9.787-21.612-21.86-21.612-12.073 0-21.86 9.676-21.86 21.612 0 11.935 9.787 21.611 21.86 21.611ZM241.14 18.267c12.073 0 21.86-9.676 21.86-21.611 0-11.936-9.787-21.612-21.86-21.612-12.073 0-21.86 9.676-21.86 21.612 0 11.935 9.787 21.611 21.86 21.611ZM.86 83.1c12.073 0 21.86-9.676 21.86-21.611 0-11.936-9.787-21.612-21.86-21.612-12.073 0-21.86 9.676-21.86 21.612C-21 73.424-11.213 83.1.86 83.1ZM44.58 83.1c12.073 0 21.86-9.676 21.86-21.611 0-11.936-9.787-21.612-21.86-21.612-12.073 0-21.86 9.676-21.86 21.612 0 11.935 9.787 21.611 21.86 21.611ZM88.3 83.1c12.073 0 21.86-9.676 21.86-21.611 0-11.936-9.787-21.612-21.86-21.612-12.073 0-21.86 9.676-21.86 21.612 0 11.935 9.787 21.611 21.86 21.611Z"/><path d="M131.839 83.1c12.073 0 21.86-9.675 21.86-21.61 0-11.936-9.787-21.612-21.86-21.612-12.073 0-21.86 9.676-21.86 21.611 0 11.936 9.787 21.612 21.86 21.612ZM175.56 83.1c12.073 0 21.86-9.675 21.86-21.61 0-11.936-9.787-21.612-21.86-21.612-12.073 0-21.86 9.676-21.86 21.611 0 11.936 9.787 21.612 21.86 21.612Z"/><path d="M219.279 83.1c12.073 0 21.86-9.675 21.86-21.61 0-11.936-9.787-21.612-21.86-21.612-12.073 0-21.86 9.676-21.86 21.611 0 11.936 9.787 21.612 21.86 21.612ZM22.72 61.49c12.073 0 21.86-9.676 21.86-21.612 0-11.936-9.787-21.611-21.86-21.611-12.073 0-21.86 9.675-21.86 21.611s9.787 21.611 21.86 21.611ZM66.44 61.49c12.073 0 21.86-9.676 21.86-21.612 0-11.936-9.787-21.611-21.86-21.611-12.073 0-21.86 9.675-21.86 21.611s9.787 21.611 21.86 21.611Z"/><path d="M110.16 61.49c12.073 0 21.86-9.676 21.86-21.612 0-11.936-9.787-21.611-21.86-21.611-12.072 0-21.86 9.675-21.86 21.611s9.788 21.611 21.86 21.611Z"/><path d="M153.7 61.49c12.072 0 21.86-9.676 21.86-21.612 0-11.936-9.788-21.611-21.86-21.611-12.073 0-21.861 9.675-21.861 21.611s9.788 21.611 21.861 21.611Z"/><path d="M197.419 61.49c12.073 0 21.86-9.676 21.86-21.612 0-11.936-9.787-21.611-21.86-21.611-12.073 0-21.86 9.675-21.86 21.611s9.787 21.611 21.86 21.611ZM241.14 61.49c12.073 0 21.86-9.676 21.86-21.612 0-11.936-9.787-21.611-21.86-21.611-12.073 0-21.86 9.675-21.86 21.611s9.787 21.611 21.86 21.611ZM.86 126.382c12.073 0 21.86-9.676 21.86-21.612 0-11.935-9.787-21.611-21.86-21.611-12.073 0-21.86 9.676-21.86 21.611 0 11.936 9.787 21.612 21.86 21.612ZM44.58 126.382c12.073 0 21.86-9.676 21.86-21.612 0-11.935-9.787-21.611-21.86-21.611-12.073 0-21.86 9.676-21.86 21.611 0 11.936 9.787 21.612 21.86 21.612ZM88.3 126.381c12.073 0 21.86-9.676 21.86-21.611 0-11.936-9.787-21.612-21.86-21.612-12.073 0-21.86 9.676-21.86 21.612 0 11.935 9.787 21.611 21.86 21.611Z"/><path d="M131.839 126.382c12.073 0 21.86-9.676 21.86-21.612 0-11.935-9.787-21.611-21.86-21.611-12.073 0-21.86 9.676-21.86 21.611 0 11.936 9.787 21.612 21.86 21.612ZM175.56 126.381c12.073 0 21.86-9.676 21.86-21.611 0-11.936-9.787-21.612-21.86-21.612-12.073 0-21.86 9.676-21.86 21.612 0 11.935 9.787 21.611 21.86 21.611Z"/><path d="M219.279 126.381c12.073 0 21.86-9.676 21.86-21.611 0-11.936-9.787-21.612-21.86-21.612-12.073 0-21.86 9.676-21.86 21.612 0 11.935 9.787 21.611 21.86 21.611ZM22.72 104.948c12.073 0 21.86-9.675 21.86-21.611s-9.787-21.611-21.86-21.611C10.647 61.726.86 71.4.86 83.336c0 11.937 9.787 21.612 21.86 21.612ZM66.44 104.948c12.072 0 21.86-9.675 21.86-21.611s-9.788-21.611-21.86-21.611c-12.074 0-21.86 9.675-21.86 21.61 0 11.937 9.786 21.612 21.86 21.612Z"/><path d="M110.16 104.948c12.073 0 21.86-9.675 21.86-21.611s-9.787-21.611-21.86-21.611c-12.072 0-21.86 9.675-21.86 21.61 0 11.937 9.788 21.612 21.86 21.612Z"/><path d="M153.7 104.948c12.072 0 21.86-9.675 21.86-21.611s-9.788-21.611-21.86-21.611c-12.073 0-21.861 9.675-21.861 21.61 0 11.937 9.788 21.612 21.861 21.612Z"/><path d="M197.419 104.948c12.073 0 21.86-9.675 21.86-21.611s-9.787-21.611-21.86-21.611c-12.073 0-21.86 9.675-21.86 21.61 0 11.937 9.787 21.612 21.86 21.612ZM241.14 104.948c12.073 0 21.86-9.675 21.86-21.611s-9.787-21.611-21.86-21.611c-12.073 0-21.86 9.675-21.86 21.61 0 11.937 9.787 21.612 21.86 21.612ZM.86 169.604c12.073 0 21.86-9.676 21.86-21.612 0-11.935-9.787-21.611-21.86-21.611-12.073 0-21.86 9.676-21.86 21.611 0 11.936 9.787 21.612 21.86 21.612ZM44.58 169.604c12.073 0 21.86-9.676 21.86-21.612 0-11.935-9.787-21.611-21.86-21.611-12.073 0-21.86 9.676-21.86 21.611 0 11.936 9.787 21.612 21.86 21.612ZM88.3 169.604c12.073 0 21.86-9.676 21.86-21.612 0-11.935-9.787-21.611-21.86-21.611-12.073 0-21.86 9.676-21.86 21.611 0 11.936 9.787 21.612 21.86 21.612Z"/><path d="M131.839 169.604c12.073 0 21.86-9.676 21.86-21.612 0-11.935-9.787-21.611-21.86-21.611-12.073 0-21.86 9.676-21.86 21.611 0 11.936 9.787 21.612 21.86 21.612ZM175.56 169.604c12.073 0 21.86-9.676 21.86-21.612 0-11.935-9.787-21.611-21.86-21.611-12.073 0-21.86 9.676-21.86 21.611 0 11.936 9.787 21.612 21.86 21.612Z"/><path d="M219.279 169.604c12.073 0 21.86-9.676 21.86-21.612 0-11.935-9.787-21.611-21.86-21.611-12.073 0-21.86 9.676-21.86 21.611 0 11.936 9.787 21.612 21.86 21.612ZM22.72 147.993c12.073 0 21.86-9.676 21.86-21.611 0-11.936-9.787-21.612-21.86-21.612-12.073 0-21.86 9.676-21.86 21.612 0 11.935 9.787 21.611 21.86 21.611ZM66.44 147.993c12.072 0 21.86-9.676 21.86-21.611 0-11.936-9.788-21.612-21.86-21.612-12.074 0-21.86 9.676-21.86 21.612 0 11.935 9.786 21.611 21.86 21.611Z"/><path d="M110.16 147.993c12.073 0 21.86-9.676 21.86-21.611 0-11.936-9.787-21.612-21.86-21.612-12.072 0-21.86 9.676-21.86 21.612 0 11.935 9.788 21.611 21.86 21.611Z"/><path d="M153.7 147.993c12.072 0 21.86-9.676 21.86-21.611 0-11.936-9.788-21.612-21.86-21.612-12.073 0-21.861 9.676-21.861 21.612 0 11.935 9.788 21.611 21.861 21.611Z"/><path d="M197.419 147.993c12.073 0 21.86-9.676 21.86-21.611 0-11.936-9.787-21.612-21.86-21.612-12.073 0-21.86 9.676-21.86 21.612 0 11.935 9.787 21.611 21.86 21.611ZM241.14 147.993c12.073 0 21.86-9.676 21.86-21.611 0-11.936-9.787-21.612-21.86-21.612-12.073 0-21.86 9.676-21.86 21.612 0 11.935 9.787 21.611 21.86 21.611Z"/></g><path d="M108.385 52A7.387 7.387 0 0 0 101 59.396v11.076a4.925 4.925 0 0 0 2.706 4.397l9.613 4.826V64.308h15.376L140.977 52h-32.592Z" fill="#fff"/><path d="M133.618 92.005A7.384 7.384 0 0 0 141 84.62V73.542a4.92 4.92 0 0 0-2.717-4.395l-9.588-4.84v15.388h-15.376l-12.294 12.31h32.593Z" fill="#fff"/></g><defs><clipPath id="a"><path fill="#fff" d="M0 0h242v144H0z"/></clipPath></defs></svg>