<svg width="1600" height="800" viewBox="0 0 1600 800" fill="none" xmlns="http://www.w3.org/2000/svg">
<g clip-path="url(#clip0_1906_8032)">
<rect width="1600" height="800" fill="#60BEC4"/>
<g opacity="0.35">
<path d="M0.340137 93.0616C25.9331 93.0616 46.6803 72.5504 46.6803 47.2486C46.6803 21.9467 25.9331 1.43555 0.340137 1.43555C-25.2528 1.43555 -46 21.9467 -46 47.2486C-46 72.5504 -25.2528 93.0616 0.340137 93.0616Z" stroke="#F1F8FF" stroke-width="0.5" stroke-miterlimit="10"/>
<path d="M93.0208 93.0616C118.614 93.0616 139.361 72.5504 139.361 47.2486C139.361 21.9467 118.614 1.43555 93.0208 1.43555C67.4279 1.43555 46.6807 21.9467 46.6807 47.2486C46.6807 72.5504 67.4279 93.0616 93.0208 93.0616Z" stroke="#F1F8FF" stroke-width="0.5" stroke-miterlimit="10"/>
<path d="M185.699 93.0596C211.292 93.0596 232.04 72.5484 232.04 47.2466C232.04 21.9448 211.292 1.43359 185.699 1.43359C160.107 1.43359 139.359 21.9448 139.359 47.2466C139.359 72.5484 160.107 93.0596 185.699 93.0596Z" stroke="#F1F8FF" stroke-width="0.5" stroke-miterlimit="10"/>
<path d="M277.997 93.0616C303.59 93.0616 324.337 72.5504 324.337 47.2486C324.337 21.9467 303.59 1.43555 277.997 1.43555C252.404 1.43555 231.657 21.9467 231.657 47.2486C231.657 72.5504 252.404 93.0616 277.997 93.0616Z" stroke="#F1F8FF" stroke-width="0.5" stroke-miterlimit="10"/>
<path d="M370.679 93.0596C396.272 93.0596 417.019 72.5484 417.019 47.2466C417.019 21.9448 396.272 1.43359 370.679 1.43359C345.086 1.43359 324.339 21.9448 324.339 47.2466C324.339 72.5484 345.086 93.0596 370.679 93.0596Z" stroke="#F1F8FF" stroke-width="0.5" stroke-miterlimit="10"/>
<path d="M463.358 93.0596C488.951 93.0596 509.698 72.5484 509.698 47.2466C509.698 21.9448 488.951 1.43359 463.358 1.43359C437.765 1.43359 417.018 21.9448 417.018 47.2466C417.018 72.5484 437.765 93.0596 463.358 93.0596Z" stroke="#F1F8FF" stroke-width="0.5" stroke-miterlimit="10"/>
<path d="M46.6811 47.626C72.274 47.626 93.0212 27.1149 93.0212 1.81302C93.0212 -23.4888 72.274 -44 46.6811 -44C21.0881 -44 0.340942 -23.4888 0.340942 1.81302C0.340942 27.1149 21.0881 47.626 46.6811 47.626Z" stroke="#F1F8FF" stroke-width="0.5" stroke-miterlimit="10"/>
<path d="M139.359 47.626C164.952 47.626 185.699 27.1149 185.699 1.81302C185.699 -23.4888 164.952 -44 139.359 -44C113.766 -44 93.0186 -23.4888 93.0186 1.81302C93.0186 27.1149 113.766 47.626 139.359 47.626Z" stroke="#F1F8FF" stroke-width="0.5" stroke-miterlimit="10"/>
<path d="M232.041 47.626C257.634 47.626 278.381 27.1149 278.381 1.81302C278.381 -23.4888 257.634 -44 232.041 -44C206.448 -44 185.701 -23.4888 185.701 1.81302C185.701 27.1149 206.448 47.626 232.041 47.626Z" stroke="#F1F8FF" stroke-width="0.5" stroke-miterlimit="10"/>
<path d="M324.338 47.626C349.931 47.626 370.678 27.1149 370.678 1.81302C370.678 -23.4888 349.931 -44 324.338 -44C298.745 -44 277.998 -23.4888 277.998 1.81302C277.998 27.1149 298.745 47.626 324.338 47.626Z" stroke="#F1F8FF" stroke-width="0.5" stroke-miterlimit="10"/>
<path d="M417.018 47.626C442.611 47.626 463.358 27.1149 463.358 1.81302C463.358 -23.4888 442.611 -44 417.018 -44C391.425 -44 370.678 -23.4888 370.678 1.81302C370.678 27.1149 391.425 47.626 417.018 47.626Z" stroke="#F1F8FF" stroke-width="0.5" stroke-miterlimit="10"/>
<path d="M509.7 47.626C535.293 47.626 556.04 27.1149 556.04 1.81302C556.04 -23.4888 535.293 -44 509.7 -44C484.107 -44 463.359 -23.4888 463.359 1.81302C463.359 27.1149 484.107 47.626 509.7 47.626Z" stroke="#F1F8FF" stroke-width="0.5" stroke-miterlimit="10"/>
<path d="M0.340137 184.686C25.9331 184.686 46.6803 164.174 46.6803 138.873C46.6803 113.571 25.9331 93.0596 0.340137 93.0596C-25.2528 93.0596 -46 113.571 -46 138.873C-46 164.174 -25.2528 184.686 0.340137 184.686Z" stroke="#F1F8FF" stroke-width="0.5" stroke-miterlimit="10"/>
<path d="M93.0208 184.686C118.614 184.686 139.361 164.174 139.361 138.873C139.361 113.571 118.614 93.0596 93.0208 93.0596C67.4279 93.0596 46.6807 113.571 46.6807 138.873C46.6807 164.174 67.4279 184.686 93.0208 184.686Z" stroke="#F1F8FF" stroke-width="0.5" stroke-miterlimit="10"/>
<path d="M185.699 184.686C211.292 184.686 232.04 164.174 232.04 138.873C232.04 113.571 211.292 93.0596 185.699 93.0596C160.107 93.0596 139.359 113.571 139.359 138.873C139.359 164.174 160.107 184.686 185.699 184.686Z" stroke="#F1F8FF" stroke-width="0.5" stroke-miterlimit="10"/>
<path d="M277.997 184.686C303.59 184.686 324.337 164.174 324.337 138.873C324.337 113.571 303.59 93.0596 277.997 93.0596C252.404 93.0596 231.657 113.571 231.657 138.873C231.657 164.174 252.404 184.686 277.997 184.686Z" stroke="#F1F8FF" stroke-width="0.5" stroke-miterlimit="10"/>
<path d="M370.679 184.686C396.272 184.686 417.019 164.174 417.019 138.873C417.019 113.571 396.272 93.0596 370.679 93.0596C345.086 93.0596 324.339 113.571 324.339 138.873C324.339 164.174 345.086 184.686 370.679 184.686Z" stroke="#F1F8FF" stroke-width="0.5" stroke-miterlimit="10"/>
<path d="M463.358 184.686C488.951 184.686 509.698 164.174 509.698 138.873C509.698 113.571 488.951 93.0596 463.358 93.0596C437.765 93.0596 417.018 113.571 417.018 138.873C417.018 164.174 437.765 184.686 463.358 184.686Z" stroke="#F1F8FF" stroke-width="0.5" stroke-miterlimit="10"/>
<path d="M46.6809 138.874C72.2739 138.874 93.0211 118.363 93.0211 93.0611C93.0211 67.7592 72.2739 47.248 46.6809 47.248C21.088 47.248 0.34082 67.7592 0.34082 93.0611C0.34082 118.363 21.088 138.874 46.6809 138.874Z" stroke="#F1F8FF" stroke-width="0.5" stroke-miterlimit="10"/>
<path d="M139.359 138.874C164.952 138.874 185.699 118.363 185.699 93.0611C185.699 67.7592 164.952 47.248 139.359 47.248C113.766 47.248 93.0186 67.7592 93.0186 93.0611C93.0186 118.363 113.766 138.874 139.359 138.874Z" stroke="#F1F8FF" stroke-width="0.5" stroke-miterlimit="10"/>
<path d="M232.041 138.874C257.634 138.874 278.381 118.363 278.381 93.0611C278.381 67.7592 257.634 47.248 232.041 47.248C206.448 47.248 185.701 67.7592 185.701 93.0611C185.701 118.363 206.448 138.874 232.041 138.874Z" stroke="#F1F8FF" stroke-width="0.5" stroke-miterlimit="10"/>
<path d="M324.338 138.874C349.931 138.874 370.678 118.363 370.678 93.0611C370.678 67.7592 349.931 47.248 324.338 47.248C298.745 47.248 277.998 67.7592 277.998 93.0611C277.998 118.363 298.745 138.874 324.338 138.874Z" stroke="#F1F8FF" stroke-width="0.5" stroke-miterlimit="10"/>
<path d="M417.018 138.874C442.611 138.874 463.358 118.363 463.358 93.0611C463.358 67.7592 442.611 47.248 417.018 47.248C391.425 47.248 370.678 67.7592 370.678 93.0611C370.678 118.363 391.425 138.874 417.018 138.874Z" stroke="#F1F8FF" stroke-width="0.5" stroke-miterlimit="10"/>
<path d="M509.7 138.874C535.293 138.874 556.04 118.363 556.04 93.0611C556.04 67.7592 535.293 47.248 509.7 47.248C484.107 47.248 463.359 67.7592 463.359 93.0611C463.359 118.363 484.107 138.874 509.7 138.874Z" stroke="#F1F8FF" stroke-width="0.5" stroke-miterlimit="10"/>
<path d="M0.340137 276.312C25.9331 276.312 46.6803 255.8 46.6803 230.499C46.6803 205.197 25.9331 184.686 0.340137 184.686C-25.2528 184.686 -46 205.197 -46 230.499C-46 255.8 -25.2528 276.312 0.340137 276.312Z" stroke="#F1F8FF" stroke-width="0.5" stroke-miterlimit="10"/>
<path d="M93.0208 276.312C118.614 276.312 139.361 255.8 139.361 230.499C139.361 205.197 118.614 184.686 93.0208 184.686C67.4279 184.686 46.6807 205.197 46.6807 230.499C46.6807 255.8 67.4279 276.312 93.0208 276.312Z" stroke="#F1F8FF" stroke-width="0.5" stroke-miterlimit="10"/>
<path d="M185.699 276.312C211.292 276.312 232.04 255.8 232.04 230.499C232.04 205.197 211.292 184.686 185.699 184.686C160.107 184.686 139.359 205.197 139.359 230.499C139.359 255.8 160.107 276.312 185.699 276.312Z" stroke="#F1F8FF" stroke-width="0.5" stroke-miterlimit="10"/>
<path d="M277.997 276.313C303.59 276.313 324.337 255.801 324.337 230.5C324.337 205.198 303.59 184.687 277.997 184.687C252.404 184.687 231.657 205.198 231.657 230.5C231.657 255.801 252.404 276.313 277.997 276.313Z" stroke="#F1F8FF" stroke-width="0.5" stroke-miterlimit="10"/>
<path d="M370.679 276.313C396.272 276.313 417.019 255.801 417.019 230.5C417.019 205.198 396.272 184.687 370.679 184.687C345.086 184.687 324.339 205.198 324.339 230.5C324.339 255.801 345.086 276.313 370.679 276.313Z" stroke="#F1F8FF" stroke-width="0.5" stroke-miterlimit="10"/>
<path d="M463.358 276.313C488.951 276.313 509.698 255.801 509.698 230.5C509.698 205.198 488.951 184.687 463.358 184.687C437.765 184.687 417.018 205.198 417.018 230.5C417.018 255.801 437.765 276.313 463.358 276.313Z" stroke="#F1F8FF" stroke-width="0.5" stroke-miterlimit="10"/>
<path d="M46.6809 230.499C72.2739 230.499 93.0211 209.988 93.0211 184.686C93.0211 159.384 72.2739 138.873 46.6809 138.873C21.088 138.873 0.34082 159.384 0.34082 184.686C0.34082 209.988 21.088 230.499 46.6809 230.499Z" stroke="#F1F8FF" stroke-width="0.5" stroke-miterlimit="10"/>
<path d="M139.361 230.499C164.954 230.499 185.701 209.988 185.701 184.686C185.701 159.384 164.954 138.873 139.361 138.873C113.768 138.873 93.0205 159.384 93.0205 184.686C93.0205 209.988 113.768 230.499 139.361 230.499Z" stroke="#F1F8FF" stroke-width="0.5" stroke-miterlimit="10"/>
<path d="M232.041 230.499C257.634 230.499 278.381 209.988 278.381 184.686C278.381 159.384 257.634 138.873 232.041 138.873C206.448 138.873 185.701 159.384 185.701 184.686C185.701 209.988 206.448 230.499 232.041 230.499Z" stroke="#F1F8FF" stroke-width="0.5" stroke-miterlimit="10"/>
<path d="M324.338 230.499C349.931 230.499 370.678 209.988 370.678 184.686C370.678 159.384 349.931 138.873 324.338 138.873C298.745 138.873 277.998 159.384 277.998 184.686C277.998 209.988 298.745 230.499 324.338 230.499Z" stroke="#F1F8FF" stroke-width="0.5" stroke-miterlimit="10"/>
<path d="M417.018 230.499C442.611 230.499 463.358 209.988 463.358 184.686C463.358 159.384 442.611 138.873 417.018 138.873C391.425 138.873 370.678 159.384 370.678 184.686C370.678 209.988 391.425 230.499 417.018 230.499Z" stroke="#F1F8FF" stroke-width="0.5" stroke-miterlimit="10"/>
<path d="M509.7 230.499C535.293 230.499 556.04 209.988 556.04 184.686C556.04 159.384 535.293 138.873 509.7 138.873C484.107 138.873 463.359 159.384 463.359 184.686C463.359 209.988 484.107 230.499 509.7 230.499Z" stroke="#F1F8FF" stroke-width="0.5" stroke-miterlimit="10"/>
<path d="M0.340137 368.062C25.9331 368.062 46.6803 347.55 46.6803 322.249C46.6803 296.947 25.9331 276.436 0.340137 276.436C-25.2528 276.436 -46 296.947 -46 322.249C-46 347.55 -25.2528 368.062 0.340137 368.062Z" stroke="#F1F8FF" stroke-width="0.5" stroke-miterlimit="10"/>
<path d="M93.0208 368.062C118.614 368.062 139.361 347.55 139.361 322.249C139.361 296.947 118.614 276.436 93.0208 276.436C67.4279 276.436 46.6807 296.947 46.6807 322.249C46.6807 347.55 67.4279 368.062 93.0208 368.062Z" stroke="#F1F8FF" stroke-width="0.5" stroke-miterlimit="10"/>
<path d="M185.699 368.06C211.292 368.06 232.04 347.548 232.04 322.247C232.04 296.945 211.292 276.434 185.699 276.434C160.107 276.434 139.359 296.945 139.359 322.247C139.359 347.548 160.107 368.06 185.699 368.06Z" stroke="#F1F8FF" stroke-width="0.5" stroke-miterlimit="10"/>
<path d="M277.997 368.062C303.59 368.062 324.337 347.55 324.337 322.249C324.337 296.947 303.59 276.436 277.997 276.436C252.404 276.436 231.657 296.947 231.657 322.249C231.657 347.55 252.404 368.062 277.997 368.062Z" stroke="#F1F8FF" stroke-width="0.5" stroke-miterlimit="10"/>
<path d="M370.679 368.06C396.272 368.06 417.019 347.548 417.019 322.247C417.019 296.945 396.272 276.434 370.679 276.434C345.086 276.434 324.339 296.945 324.339 322.247C324.339 347.548 345.086 368.06 370.679 368.06Z" stroke="#F1F8FF" stroke-width="0.5" stroke-miterlimit="10"/>
<path d="M463.358 368.06C488.951 368.06 509.698 347.548 509.698 322.247C509.698 296.945 488.951 276.434 463.358 276.434C437.765 276.434 417.018 296.945 417.018 322.247C417.018 347.548 437.765 368.06 463.358 368.06Z" stroke="#F1F8FF" stroke-width="0.5" stroke-miterlimit="10"/>
<path d="M46.6809 322.626C72.2739 322.626 93.0211 302.115 93.0211 276.813C93.0211 251.511 72.2739 231 46.6809 231C21.088 231 0.34082 251.511 0.34082 276.813C0.34082 302.115 21.088 322.626 46.6809 322.626Z" stroke="#F1F8FF" stroke-width="0.5" stroke-miterlimit="10"/>
<path d="M139.359 322.626C164.952 322.626 185.699 302.115 185.699 276.813C185.699 251.511 164.952 231 139.359 231C113.766 231 93.0186 251.511 93.0186 276.813C93.0186 302.115 113.766 322.626 139.359 322.626Z" stroke="#F1F8FF" stroke-width="0.5" stroke-miterlimit="10"/>
<path d="M232.041 322.626C257.634 322.626 278.381 302.115 278.381 276.813C278.381 251.511 257.634 231 232.041 231C206.448 231 185.701 251.511 185.701 276.813C185.701 302.115 206.448 322.626 232.041 322.626Z" stroke="#F1F8FF" stroke-width="0.5" stroke-miterlimit="10"/>
<path d="M324.338 322.626C349.931 322.626 370.678 302.115 370.678 276.813C370.678 251.511 349.931 231 324.338 231C298.745 231 277.998 251.511 277.998 276.813C277.998 302.115 298.745 322.626 324.338 322.626Z" stroke="#F1F8FF" stroke-width="0.5" stroke-miterlimit="10"/>
<path d="M417.018 322.626C442.611 322.626 463.358 302.115 463.358 276.813C463.358 251.511 442.611 231 417.018 231C391.425 231 370.678 251.511 370.678 276.813C370.678 302.115 391.425 322.626 417.018 322.626Z" stroke="#F1F8FF" stroke-width="0.5" stroke-miterlimit="10"/>
<path d="M509.7 322.626C535.293 322.626 556.04 302.115 556.04 276.813C556.04 251.511 535.293 231 509.7 231C484.107 231 463.359 251.511 463.359 276.813C463.359 302.115 484.107 322.626 509.7 322.626Z" stroke="#F1F8FF" stroke-width="0.5" stroke-miterlimit="10"/>
<path d="M0.340137 459.686C25.9331 459.686 46.6803 439.174 46.6803 413.873C46.6803 388.571 25.9331 368.06 0.340137 368.06C-25.2528 368.06 -46 388.571 -46 413.873C-46 439.174 -25.2528 459.686 0.340137 459.686Z" stroke="#F1F8FF" stroke-width="0.5" stroke-miterlimit="10"/>
<path d="M93.0208 459.686C118.614 459.686 139.361 439.174 139.361 413.873C139.361 388.571 118.614 368.06 93.0208 368.06C67.4279 368.06 46.6807 388.571 46.6807 413.873C46.6807 439.174 67.4279 459.686 93.0208 459.686Z" stroke="#F1F8FF" stroke-width="0.5" stroke-miterlimit="10"/>
<path d="M185.699 459.686C211.292 459.686 232.04 439.174 232.04 413.873C232.04 388.571 211.292 368.06 185.699 368.06C160.107 368.06 139.359 388.571 139.359 413.873C139.359 439.174 160.107 459.686 185.699 459.686Z" stroke="#F1F8FF" stroke-width="0.5" stroke-miterlimit="10"/>
<path d="M277.997 459.686C303.59 459.686 324.337 439.174 324.337 413.873C324.337 388.571 303.59 368.06 277.997 368.06C252.404 368.06 231.657 388.571 231.657 413.873C231.657 439.174 252.404 459.686 277.997 459.686Z" stroke="#F1F8FF" stroke-width="0.5" stroke-miterlimit="10"/>
<path d="M370.679 459.686C396.272 459.686 417.019 439.174 417.019 413.873C417.019 388.571 396.272 368.06 370.679 368.06C345.086 368.06 324.339 388.571 324.339 413.873C324.339 439.174 345.086 459.686 370.679 459.686Z" stroke="#F1F8FF" stroke-width="0.5" stroke-miterlimit="10"/>
<path d="M463.358 459.686C488.951 459.686 509.698 439.174 509.698 413.873C509.698 388.571 488.951 368.06 463.358 368.06C437.765 368.06 417.018 388.571 417.018 413.873C417.018 439.174 437.765 459.686 463.358 459.686Z" stroke="#F1F8FF" stroke-width="0.5" stroke-miterlimit="10"/>
<path d="M46.6809 413.874C72.2739 413.874 93.0211 393.363 93.0211 368.061C93.0211 342.759 72.2739 322.248 46.6809 322.248C21.088 322.248 0.34082 342.759 0.34082 368.061C0.34082 393.363 21.088 413.874 46.6809 413.874Z" stroke="#F1F8FF" stroke-width="0.5" stroke-miterlimit="10"/>
<path d="M139.359 413.874C164.952 413.874 185.699 393.363 185.699 368.061C185.699 342.759 164.952 322.248 139.359 322.248C113.766 322.248 93.0186 342.759 93.0186 368.061C93.0186 393.363 113.766 413.874 139.359 413.874Z" stroke="#F1F8FF" stroke-width="0.5" stroke-miterlimit="10"/>
<path d="M232.041 413.874C257.634 413.874 278.381 393.363 278.381 368.061C278.381 342.759 257.634 322.248 232.041 322.248C206.448 322.248 185.701 342.759 185.701 368.061C185.701 393.363 206.448 413.874 232.041 413.874Z" stroke="#F1F8FF" stroke-width="0.5" stroke-miterlimit="10"/>
<path d="M324.338 413.874C349.931 413.874 370.678 393.363 370.678 368.061C370.678 342.759 349.931 322.248 324.338 322.248C298.745 322.248 277.998 342.759 277.998 368.061C277.998 393.363 298.745 413.874 324.338 413.874Z" stroke="#F1F8FF" stroke-width="0.5" stroke-miterlimit="10"/>
<path d="M417.018 413.874C442.611 413.874 463.358 393.363 463.358 368.061C463.358 342.759 442.611 322.248 417.018 322.248C391.425 322.248 370.678 342.759 370.678 368.061C370.678 393.363 391.425 413.874 417.018 413.874Z" stroke="#F1F8FF" stroke-width="0.5" stroke-miterlimit="10"/>
<path d="M509.7 413.874C535.293 413.874 556.04 393.363 556.04 368.061C556.04 342.759 535.293 322.248 509.7 322.248C484.107 322.248 463.359 342.759 463.359 368.061C463.359 393.363 484.107 413.874 509.7 413.874Z" stroke="#F1F8FF" stroke-width="0.5" stroke-miterlimit="10"/>
<path d="M0.340137 551.312C25.9331 551.312 46.6803 530.8 46.6803 505.499C46.6803 480.197 25.9331 459.686 0.340137 459.686C-25.2528 459.686 -46 480.197 -46 505.499C-46 530.8 -25.2528 551.312 0.340137 551.312Z" stroke="#F1F8FF" stroke-width="0.5" stroke-miterlimit="10"/>
<path d="M93.0208 551.312C118.614 551.312 139.361 530.8 139.361 505.499C139.361 480.197 118.614 459.686 93.0208 459.686C67.4279 459.686 46.6807 480.197 46.6807 505.499C46.6807 530.8 67.4279 551.312 93.0208 551.312Z" stroke="#F1F8FF" stroke-width="0.5" stroke-miterlimit="10"/>
<path d="M185.699 551.312C211.292 551.312 232.04 530.8 232.04 505.499C232.04 480.197 211.292 459.686 185.699 459.686C160.107 459.686 139.359 480.197 139.359 505.499C139.359 530.8 160.107 551.312 185.699 551.312Z" stroke="#F1F8FF" stroke-width="0.5" stroke-miterlimit="10"/>
<path d="M277.997 551.313C303.59 551.313 324.337 530.801 324.337 505.5C324.337 480.198 303.59 459.687 277.997 459.687C252.404 459.687 231.657 480.198 231.657 505.5C231.657 530.801 252.404 551.313 277.997 551.313Z" stroke="#F1F8FF" stroke-width="0.5" stroke-miterlimit="10"/>
<path d="M370.679 551.313C396.272 551.313 417.019 530.801 417.019 505.5C417.019 480.198 396.272 459.687 370.679 459.687C345.086 459.687 324.339 480.198 324.339 505.5C324.339 530.801 345.086 551.313 370.679 551.313Z" stroke="#F1F8FF" stroke-width="0.5" stroke-miterlimit="10"/>
<path d="M463.358 551.313C488.951 551.313 509.698 530.801 509.698 505.5C509.698 480.198 488.951 459.687 463.358 459.687C437.765 459.687 417.018 480.198 417.018 505.5C417.018 530.801 437.765 551.313 463.358 551.313Z" stroke="#F1F8FF" stroke-width="0.5" stroke-miterlimit="10"/>
<path d="M46.6809 505.499C72.2739 505.499 93.0211 484.988 93.0211 459.686C93.0211 434.384 72.2739 413.873 46.6809 413.873C21.088 413.873 0.34082 434.384 0.34082 459.686C0.34082 484.988 21.088 505.499 46.6809 505.499Z" stroke="#F1F8FF" stroke-width="0.5" stroke-miterlimit="10"/>
<path d="M139.361 505.499C164.954 505.499 185.701 484.988 185.701 459.686C185.701 434.384 164.954 413.873 139.361 413.873C113.768 413.873 93.0205 434.384 93.0205 459.686C93.0205 484.988 113.768 505.499 139.361 505.499Z" stroke="#F1F8FF" stroke-width="0.5" stroke-miterlimit="10"/>
<path d="M232.041 505.499C257.634 505.499 278.381 484.988 278.381 459.686C278.381 434.384 257.634 413.873 232.041 413.873C206.448 413.873 185.701 434.384 185.701 459.686C185.701 484.988 206.448 505.499 232.041 505.499Z" stroke="#F1F8FF" stroke-width="0.5" stroke-miterlimit="10"/>
<path d="M324.338 505.499C349.931 505.499 370.678 484.988 370.678 459.686C370.678 434.384 349.931 413.873 324.338 413.873C298.745 413.873 277.998 434.384 277.998 459.686C277.998 484.988 298.745 505.499 324.338 505.499Z" stroke="#F1F8FF" stroke-width="0.5" stroke-miterlimit="10"/>
<path d="M417.018 505.499C442.611 505.499 463.358 484.988 463.358 459.686C463.358 434.384 442.611 413.873 417.018 413.873C391.425 413.873 370.678 434.384 370.678 459.686C370.678 484.988 391.425 505.499 417.018 505.499Z" stroke="#F1F8FF" stroke-width="0.5" stroke-miterlimit="10"/>
<path d="M509.7 505.499C535.293 505.499 556.04 484.988 556.04 459.686C556.04 434.384 535.293 413.873 509.7 413.873C484.107 413.873 463.359 434.384 463.359 459.686C463.359 484.988 484.107 505.499 509.7 505.499Z" stroke="#F1F8FF" stroke-width="0.5" stroke-miterlimit="10"/>
</g>
<g opacity="0.35">
<path d="M556.34 93.0616C581.933 93.0616 602.68 72.5504 602.68 47.2486C602.68 21.9467 581.933 1.43555 556.34 1.43555C530.747 1.43555 510 21.9467 510 47.2486C510 72.5504 530.747 93.0616 556.34 93.0616Z" stroke="#F1F8FF" stroke-width="0.5" stroke-miterlimit="10"/>
<path d="M649.021 93.0616C674.614 93.0616 695.361 72.5504 695.361 47.2486C695.361 21.9467 674.614 1.43555 649.021 1.43555C623.428 1.43555 602.681 21.9467 602.681 47.2486C602.681 72.5504 623.428 93.0616 649.021 93.0616Z" stroke="#F1F8FF" stroke-width="0.5" stroke-miterlimit="10"/>
<path d="M741.699 93.0596C767.292 93.0596 788.04 72.5484 788.04 47.2466C788.04 21.9448 767.292 1.43359 741.699 1.43359C716.107 1.43359 695.359 21.9448 695.359 47.2466C695.359 72.5484 716.107 93.0596 741.699 93.0596Z" stroke="#F1F8FF" stroke-width="0.5" stroke-miterlimit="10"/>
<path d="M833.997 93.0616C859.59 93.0616 880.337 72.5504 880.337 47.2486C880.337 21.9467 859.59 1.43555 833.997 1.43555C808.404 1.43555 787.657 21.9467 787.657 47.2486C787.657 72.5504 808.404 93.0616 833.997 93.0616Z" stroke="#F1F8FF" stroke-width="0.5" stroke-miterlimit="10"/>
<path d="M926.679 93.0596C952.272 93.0596 973.019 72.5484 973.019 47.2466C973.019 21.9448 952.272 1.43359 926.679 1.43359C901.086 1.43359 880.339 21.9448 880.339 47.2466C880.339 72.5484 901.086 93.0596 926.679 93.0596Z" stroke="#F1F8FF" stroke-width="0.5" stroke-miterlimit="10"/>
<path d="M1019.36 93.0596C1044.95 93.0596 1065.7 72.5484 1065.7 47.2466C1065.7 21.9448 1044.95 1.43359 1019.36 1.43359C993.765 1.43359 973.018 21.9448 973.018 47.2466C973.018 72.5484 993.765 93.0596 1019.36 93.0596Z" stroke="#F1F8FF" stroke-width="0.5" stroke-miterlimit="10"/>
<path d="M602.681 47.626C628.274 47.626 649.021 27.1149 649.021 1.81302C649.021 -23.4888 628.274 -44 602.681 -44C577.088 -44 556.341 -23.4888 556.341 1.81302C556.341 27.1149 577.088 47.626 602.681 47.626Z" stroke="#F1F8FF" stroke-width="0.5" stroke-miterlimit="10"/>
<path d="M695.359 47.626C720.952 47.626 741.699 27.1149 741.699 1.81302C741.699 -23.4888 720.952 -44 695.359 -44C669.766 -44 649.019 -23.4888 649.019 1.81302C649.019 27.1149 669.766 47.626 695.359 47.626Z" stroke="#F1F8FF" stroke-width="0.5" stroke-miterlimit="10"/>
<path d="M788.041 47.626C813.634 47.626 834.381 27.1149 834.381 1.81302C834.381 -23.4888 813.634 -44 788.041 -44C762.448 -44 741.701 -23.4888 741.701 1.81302C741.701 27.1149 762.448 47.626 788.041 47.626Z" stroke="#F1F8FF" stroke-width="0.5" stroke-miterlimit="10"/>
<path d="M880.338 47.626C905.931 47.626 926.678 27.1149 926.678 1.81302C926.678 -23.4888 905.931 -44 880.338 -44C854.745 -44 833.998 -23.4888 833.998 1.81302C833.998 27.1149 854.745 47.626 880.338 47.626Z" stroke="#F1F8FF" stroke-width="0.5" stroke-miterlimit="10"/>
<path d="M973.018 47.626C998.611 47.626 1019.36 27.1149 1019.36 1.81302C1019.36 -23.4888 998.611 -44 973.018 -44C947.425 -44 926.678 -23.4888 926.678 1.81302C926.678 27.1149 947.425 47.626 973.018 47.626Z" stroke="#F1F8FF" stroke-width="0.5" stroke-miterlimit="10"/>
<path d="M1065.7 47.626C1091.29 47.626 1112.04 27.1149 1112.04 1.81302C1112.04 -23.4888 1091.29 -44 1065.7 -44C1040.11 -44 1019.36 -23.4888 1019.36 1.81302C1019.36 27.1149 1040.11 47.626 1065.7 47.626Z" stroke="#F1F8FF" stroke-width="0.5" stroke-miterlimit="10"/>
<path d="M556.34 184.686C581.933 184.686 602.68 164.174 602.68 138.873C602.68 113.571 581.933 93.0596 556.34 93.0596C530.747 93.0596 510 113.571 510 138.873C510 164.174 530.747 184.686 556.34 184.686Z" stroke="#F1F8FF" stroke-width="0.5" stroke-miterlimit="10"/>
<path d="M649.021 184.686C674.614 184.686 695.361 164.174 695.361 138.873C695.361 113.571 674.614 93.0596 649.021 93.0596C623.428 93.0596 602.681 113.571 602.681 138.873C602.681 164.174 623.428 184.686 649.021 184.686Z" stroke="#F1F8FF" stroke-width="0.5" stroke-miterlimit="10"/>
<path d="M741.699 184.686C767.292 184.686 788.04 164.174 788.04 138.873C788.04 113.571 767.292 93.0596 741.699 93.0596C716.107 93.0596 695.359 113.571 695.359 138.873C695.359 164.174 716.107 184.686 741.699 184.686Z" stroke="#F1F8FF" stroke-width="0.5" stroke-miterlimit="10"/>
<path d="M833.997 184.686C859.59 184.686 880.337 164.174 880.337 138.873C880.337 113.571 859.59 93.0596 833.997 93.0596C808.404 93.0596 787.657 113.571 787.657 138.873C787.657 164.174 808.404 184.686 833.997 184.686Z" stroke="#F1F8FF" stroke-width="0.5" stroke-miterlimit="10"/>
<path d="M926.679 184.686C952.272 184.686 973.019 164.174 973.019 138.873C973.019 113.571 952.272 93.0596 926.679 93.0596C901.086 93.0596 880.339 113.571 880.339 138.873C880.339 164.174 901.086 184.686 926.679 184.686Z" stroke="#F1F8FF" stroke-width="0.5" stroke-miterlimit="10"/>
<path d="M1019.36 184.686C1044.95 184.686 1065.7 164.174 1065.7 138.873C1065.7 113.571 1044.95 93.0596 1019.36 93.0596C993.765 93.0596 973.018 113.571 973.018 138.873C973.018 164.174 993.765 184.686 1019.36 184.686Z" stroke="#F1F8FF" stroke-width="0.5" stroke-miterlimit="10"/>
<path d="M602.681 138.874C628.274 138.874 649.021 118.363 649.021 93.0611C649.021 67.7592 628.274 47.248 602.681 47.248C577.088 47.248 556.341 67.7592 556.341 93.0611C556.341 118.363 577.088 138.874 602.681 138.874Z" stroke="#F1F8FF" stroke-width="0.5" stroke-miterlimit="10"/>
<path d="M695.359 138.874C720.952 138.874 741.699 118.363 741.699 93.0611C741.699 67.7592 720.952 47.248 695.359 47.248C669.766 47.248 649.019 67.7592 649.019 93.0611C649.019 118.363 669.766 138.874 695.359 138.874Z" stroke="#F1F8FF" stroke-width="0.5" stroke-miterlimit="10"/>
<path d="M788.041 138.874C813.634 138.874 834.381 118.363 834.381 93.0611C834.381 67.7592 813.634 47.248 788.041 47.248C762.448 47.248 741.701 67.7592 741.701 93.0611C741.701 118.363 762.448 138.874 788.041 138.874Z" stroke="#F1F8FF" stroke-width="0.5" stroke-miterlimit="10"/>
<path d="M880.338 138.874C905.931 138.874 926.678 118.363 926.678 93.0611C926.678 67.7592 905.931 47.248 880.338 47.248C854.745 47.248 833.998 67.7592 833.998 93.0611C833.998 118.363 854.745 138.874 880.338 138.874Z" stroke="#F1F8FF" stroke-width="0.5" stroke-miterlimit="10"/>
<path d="M973.018 138.874C998.611 138.874 1019.36 118.363 1019.36 93.0611C1019.36 67.7592 998.611 47.248 973.018 47.248C947.425 47.248 926.678 67.7592 926.678 93.0611C926.678 118.363 947.425 138.874 973.018 138.874Z" stroke="#F1F8FF" stroke-width="0.5" stroke-miterlimit="10"/>
<path d="M1065.7 138.874C1091.29 138.874 1112.04 118.363 1112.04 93.0611C1112.04 67.7592 1091.29 47.248 1065.7 47.248C1040.11 47.248 1019.36 67.7592 1019.36 93.0611C1019.36 118.363 1040.11 138.874 1065.7 138.874Z" stroke="#F1F8FF" stroke-width="0.5" stroke-miterlimit="10"/>
<path d="M556.34 276.312C581.933 276.312 602.68 255.8 602.68 230.499C602.68 205.197 581.933 184.686 556.34 184.686C530.747 184.686 510 205.197 510 230.499C510 255.8 530.747 276.312 556.34 276.312Z" stroke="#F1F8FF" stroke-width="0.5" stroke-miterlimit="10"/>
<path d="M649.021 276.312C674.614 276.312 695.361 255.8 695.361 230.499C695.361 205.197 674.614 184.686 649.021 184.686C623.428 184.686 602.681 205.197 602.681 230.499C602.681 255.8 623.428 276.312 649.021 276.312Z" stroke="#F1F8FF" stroke-width="0.5" stroke-miterlimit="10"/>
<path d="M741.699 276.312C767.292 276.312 788.04 255.8 788.04 230.499C788.04 205.197 767.292 184.686 741.699 184.686C716.107 184.686 695.359 205.197 695.359 230.499C695.359 255.8 716.107 276.312 741.699 276.312Z" stroke="#F1F8FF" stroke-width="0.5" stroke-miterlimit="10"/>
<path d="M833.997 276.313C859.59 276.313 880.337 255.801 880.337 230.5C880.337 205.198 859.59 184.687 833.997 184.687C808.404 184.687 787.657 205.198 787.657 230.5C787.657 255.801 808.404 276.313 833.997 276.313Z" stroke="#F1F8FF" stroke-width="0.5" stroke-miterlimit="10"/>
<path d="M926.679 276.313C952.272 276.313 973.019 255.801 973.019 230.5C973.019 205.198 952.272 184.687 926.679 184.687C901.086 184.687 880.339 205.198 880.339 230.5C880.339 255.801 901.086 276.313 926.679 276.313Z" stroke="#F1F8FF" stroke-width="0.5" stroke-miterlimit="10"/>
<path d="M1019.36 276.313C1044.95 276.313 1065.7 255.801 1065.7 230.5C1065.7 205.198 1044.95 184.687 1019.36 184.687C993.765 184.687 973.018 205.198 973.018 230.5C973.018 255.801 993.765 276.313 1019.36 276.313Z" stroke="#F1F8FF" stroke-width="0.5" stroke-miterlimit="10"/>
<path d="M602.681 230.499C628.274 230.499 649.021 209.988 649.021 184.686C649.021 159.384 628.274 138.873 602.681 138.873C577.088 138.873 556.341 159.384 556.341 184.686C556.341 209.988 577.088 230.499 602.681 230.499Z" stroke="#F1F8FF" stroke-width="0.5" stroke-miterlimit="10"/>
<path d="M695.361 230.499C720.954 230.499 741.701 209.988 741.701 184.686C741.701 159.384 720.954 138.873 695.361 138.873C669.768 138.873 649.021 159.384 649.021 184.686C649.021 209.988 669.768 230.499 695.361 230.499Z" stroke="#F1F8FF" stroke-width="0.5" stroke-miterlimit="10"/>
<path d="M788.041 230.499C813.634 230.499 834.381 209.988 834.381 184.686C834.381 159.384 813.634 138.873 788.041 138.873C762.448 138.873 741.701 159.384 741.701 184.686C741.701 209.988 762.448 230.499 788.041 230.499Z" stroke="#F1F8FF" stroke-width="0.5" stroke-miterlimit="10"/>
<path d="M880.338 230.499C905.931 230.499 926.678 209.988 926.678 184.686C926.678 159.384 905.931 138.873 880.338 138.873C854.745 138.873 833.998 159.384 833.998 184.686C833.998 209.988 854.745 230.499 880.338 230.499Z" stroke="#F1F8FF" stroke-width="0.5" stroke-miterlimit="10"/>
<path d="M973.018 230.499C998.611 230.499 1019.36 209.988 1019.36 184.686C1019.36 159.384 998.611 138.873 973.018 138.873C947.425 138.873 926.678 159.384 926.678 184.686C926.678 209.988 947.425 230.499 973.018 230.499Z" stroke="#F1F8FF" stroke-width="0.5" stroke-miterlimit="10"/>
<path d="M1065.7 230.499C1091.29 230.499 1112.04 209.988 1112.04 184.686C1112.04 159.384 1091.29 138.873 1065.7 138.873C1040.11 138.873 1019.36 159.384 1019.36 184.686C1019.36 209.988 1040.11 230.499 1065.7 230.499Z" stroke="#F1F8FF" stroke-width="0.5" stroke-miterlimit="10"/>
<path d="M556.34 368.062C581.933 368.062 602.68 347.55 602.68 322.249C602.68 296.947 581.933 276.436 556.34 276.436C530.747 276.436 510 296.947 510 322.249C510 347.55 530.747 368.062 556.34 368.062Z" stroke="#F1F8FF" stroke-width="0.5" stroke-miterlimit="10"/>
<path d="M649.021 368.062C674.614 368.062 695.361 347.55 695.361 322.249C695.361 296.947 674.614 276.436 649.021 276.436C623.428 276.436 602.681 296.947 602.681 322.249C602.681 347.55 623.428 368.062 649.021 368.062Z" stroke="#F1F8FF" stroke-width="0.5" stroke-miterlimit="10"/>
<path d="M741.699 368.06C767.292 368.06 788.04 347.548 788.04 322.247C788.04 296.945 767.292 276.434 741.699 276.434C716.107 276.434 695.359 296.945 695.359 322.247C695.359 347.548 716.107 368.06 741.699 368.06Z" stroke="#F1F8FF" stroke-width="0.5" stroke-miterlimit="10"/>
<path d="M833.997 368.062C859.59 368.062 880.337 347.55 880.337 322.249C880.337 296.947 859.59 276.436 833.997 276.436C808.404 276.436 787.657 296.947 787.657 322.249C787.657 347.55 808.404 368.062 833.997 368.062Z" stroke="#F1F8FF" stroke-width="0.5" stroke-miterlimit="10"/>
<path d="M926.679 368.06C952.272 368.06 973.019 347.548 973.019 322.247C973.019 296.945 952.272 276.434 926.679 276.434C901.086 276.434 880.339 296.945 880.339 322.247C880.339 347.548 901.086 368.06 926.679 368.06Z" stroke="#F1F8FF" stroke-width="0.5" stroke-miterlimit="10"/>
<path d="M1019.36 368.06C1044.95 368.06 1065.7 347.548 1065.7 322.247C1065.7 296.945 1044.95 276.434 1019.36 276.434C993.765 276.434 973.018 296.945 973.018 322.247C973.018 347.548 993.765 368.06 1019.36 368.06Z" stroke="#F1F8FF" stroke-width="0.5" stroke-miterlimit="10"/>
<path d="M602.681 322.626C628.274 322.626 649.021 302.115 649.021 276.813C649.021 251.511 628.274 231 602.681 231C577.088 231 556.341 251.511 556.341 276.813C556.341 302.115 577.088 322.626 602.681 322.626Z" stroke="#F1F8FF" stroke-width="0.5" stroke-miterlimit="10"/>
<path d="M695.359 322.626C720.952 322.626 741.699 302.115 741.699 276.813C741.699 251.511 720.952 231 695.359 231C669.766 231 649.019 251.511 649.019 276.813C649.019 302.115 669.766 322.626 695.359 322.626Z" stroke="#F1F8FF" stroke-width="0.5" stroke-miterlimit="10"/>
<path d="M788.041 322.626C813.634 322.626 834.381 302.115 834.381 276.813C834.381 251.511 813.634 231 788.041 231C762.448 231 741.701 251.511 741.701 276.813C741.701 302.115 762.448 322.626 788.041 322.626Z" stroke="#F1F8FF" stroke-width="0.5" stroke-miterlimit="10"/>
<path d="M880.338 322.626C905.931 322.626 926.678 302.115 926.678 276.813C926.678 251.511 905.931 231 880.338 231C854.745 231 833.998 251.511 833.998 276.813C833.998 302.115 854.745 322.626 880.338 322.626Z" stroke="#F1F8FF" stroke-width="0.5" stroke-miterlimit="10"/>
<path d="M973.018 322.626C998.611 322.626 1019.36 302.115 1019.36 276.813C1019.36 251.511 998.611 231 973.018 231C947.425 231 926.678 251.511 926.678 276.813C926.678 302.115 947.425 322.626 973.018 322.626Z" stroke="#F1F8FF" stroke-width="0.5" stroke-miterlimit="10"/>
<path d="M1065.7 322.626C1091.29 322.626 1112.04 302.115 1112.04 276.813C1112.04 251.511 1091.29 231 1065.7 231C1040.11 231 1019.36 251.511 1019.36 276.813C1019.36 302.115 1040.11 322.626 1065.7 322.626Z" stroke="#F1F8FF" stroke-width="0.5" stroke-miterlimit="10"/>
<path d="M556.34 459.686C581.933 459.686 602.68 439.174 602.68 413.873C602.68 388.571 581.933 368.06 556.34 368.06C530.747 368.06 510 388.571 510 413.873C510 439.174 530.747 459.686 556.34 459.686Z" stroke="#F1F8FF" stroke-width="0.5" stroke-miterlimit="10"/>
<path d="M649.021 459.686C674.614 459.686 695.361 439.174 695.361 413.873C695.361 388.571 674.614 368.06 649.021 368.06C623.428 368.06 602.681 388.571 602.681 413.873C602.681 439.174 623.428 459.686 649.021 459.686Z" stroke="#F1F8FF" stroke-width="0.5" stroke-miterlimit="10"/>
<path d="M741.699 459.686C767.292 459.686 788.04 439.174 788.04 413.873C788.04 388.571 767.292 368.06 741.699 368.06C716.107 368.06 695.359 388.571 695.359 413.873C695.359 439.174 716.107 459.686 741.699 459.686Z" stroke="#F1F8FF" stroke-width="0.5" stroke-miterlimit="10"/>
<path d="M833.997 459.686C859.59 459.686 880.337 439.174 880.337 413.873C880.337 388.571 859.59 368.06 833.997 368.06C808.404 368.06 787.657 388.571 787.657 413.873C787.657 439.174 808.404 459.686 833.997 459.686Z" stroke="#F1F8FF" stroke-width="0.5" stroke-miterlimit="10"/>
<path d="M926.679 459.686C952.272 459.686 973.019 439.174 973.019 413.873C973.019 388.571 952.272 368.06 926.679 368.06C901.086 368.06 880.339 388.571 880.339 413.873C880.339 439.174 901.086 459.686 926.679 459.686Z" stroke="#F1F8FF" stroke-width="0.5" stroke-miterlimit="10"/>
<path d="M1019.36 459.686C1044.95 459.686 1065.7 439.174 1065.7 413.873C1065.7 388.571 1044.95 368.06 1019.36 368.06C993.765 368.06 973.018 388.571 973.018 413.873C973.018 439.174 993.765 459.686 1019.36 459.686Z" stroke="#F1F8FF" stroke-width="0.5" stroke-miterlimit="10"/>
<path d="M602.681 413.874C628.274 413.874 649.021 393.363 649.021 368.061C649.021 342.759 628.274 322.248 602.681 322.248C577.088 322.248 556.341 342.759 556.341 368.061C556.341 393.363 577.088 413.874 602.681 413.874Z" stroke="#F1F8FF" stroke-width="0.5" stroke-miterlimit="10"/>
<path d="M695.359 413.874C720.952 413.874 741.699 393.363 741.699 368.061C741.699 342.759 720.952 322.248 695.359 322.248C669.766 322.248 649.019 342.759 649.019 368.061C649.019 393.363 669.766 413.874 695.359 413.874Z" stroke="#F1F8FF" stroke-width="0.5" stroke-miterlimit="10"/>
<path d="M788.041 413.874C813.634 413.874 834.381 393.363 834.381 368.061C834.381 342.759 813.634 322.248 788.041 322.248C762.448 322.248 741.701 342.759 741.701 368.061C741.701 393.363 762.448 413.874 788.041 413.874Z" stroke="#F1F8FF" stroke-width="0.5" stroke-miterlimit="10"/>
<path d="M880.338 413.874C905.931 413.874 926.678 393.363 926.678 368.061C926.678 342.759 905.931 322.248 880.338 322.248C854.745 322.248 833.998 342.759 833.998 368.061C833.998 393.363 854.745 413.874 880.338 413.874Z" stroke="#F1F8FF" stroke-width="0.5" stroke-miterlimit="10"/>
<path d="M973.018 413.874C998.611 413.874 1019.36 393.363 1019.36 368.061C1019.36 342.759 998.611 322.248 973.018 322.248C947.425 322.248 926.678 342.759 926.678 368.061C926.678 393.363 947.425 413.874 973.018 413.874Z" stroke="#F1F8FF" stroke-width="0.5" stroke-miterlimit="10"/>
<path d="M1065.7 413.874C1091.29 413.874 1112.04 393.363 1112.04 368.061C1112.04 342.759 1091.29 322.248 1065.7 322.248C1040.11 322.248 1019.36 342.759 1019.36 368.061C1019.36 393.363 1040.11 413.874 1065.7 413.874Z" stroke="#F1F8FF" stroke-width="0.5" stroke-miterlimit="10"/>
<path d="M556.34 551.312C581.933 551.312 602.68 530.8 602.68 505.499C602.68 480.197 581.933 459.686 556.34 459.686C530.747 459.686 510 480.197 510 505.499C510 530.8 530.747 551.312 556.34 551.312Z" stroke="#F1F8FF" stroke-width="0.5" stroke-miterlimit="10"/>
<path d="M649.021 551.312C674.614 551.312 695.361 530.8 695.361 505.499C695.361 480.197 674.614 459.686 649.021 459.686C623.428 459.686 602.681 480.197 602.681 505.499C602.681 530.8 623.428 551.312 649.021 551.312Z" stroke="#F1F8FF" stroke-width="0.5" stroke-miterlimit="10"/>
<path d="M741.699 551.312C767.292 551.312 788.04 530.8 788.04 505.499C788.04 480.197 767.292 459.686 741.699 459.686C716.107 459.686 695.359 480.197 695.359 505.499C695.359 530.8 716.107 551.312 741.699 551.312Z" stroke="#F1F8FF" stroke-width="0.5" stroke-miterlimit="10"/>
<path d="M833.997 551.313C859.59 551.313 880.337 530.801 880.337 505.5C880.337 480.198 859.59 459.687 833.997 459.687C808.404 459.687 787.657 480.198 787.657 505.5C787.657 530.801 808.404 551.313 833.997 551.313Z" stroke="#F1F8FF" stroke-width="0.5" stroke-miterlimit="10"/>
<path d="M926.679 551.313C952.272 551.313 973.019 530.801 973.019 505.5C973.019 480.198 952.272 459.687 926.679 459.687C901.086 459.687 880.339 480.198 880.339 505.5C880.339 530.801 901.086 551.313 926.679 551.313Z" stroke="#F1F8FF" stroke-width="0.5" stroke-miterlimit="10"/>
<path d="M1019.36 551.313C1044.95 551.313 1065.7 530.801 1065.7 505.5C1065.7 480.198 1044.95 459.687 1019.36 459.687C993.765 459.687 973.018 480.198 973.018 505.5C973.018 530.801 993.765 551.313 1019.36 551.313Z" stroke="#F1F8FF" stroke-width="0.5" stroke-miterlimit="10"/>
<path d="M602.681 505.499C628.274 505.499 649.021 484.988 649.021 459.686C649.021 434.384 628.274 413.873 602.681 413.873C577.088 413.873 556.341 434.384 556.341 459.686C556.341 484.988 577.088 505.499 602.681 505.499Z" stroke="#F1F8FF" stroke-width="0.5" stroke-miterlimit="10"/>
<path d="M695.361 505.499C720.954 505.499 741.701 484.988 741.701 459.686C741.701 434.384 720.954 413.873 695.361 413.873C669.768 413.873 649.021 434.384 649.021 459.686C649.021 484.988 669.768 505.499 695.361 505.499Z" stroke="#F1F8FF" stroke-width="0.5" stroke-miterlimit="10"/>
<path d="M788.041 505.499C813.634 505.499 834.381 484.988 834.381 459.686C834.381 434.384 813.634 413.873 788.041 413.873C762.448 413.873 741.701 434.384 741.701 459.686C741.701 484.988 762.448 505.499 788.041 505.499Z" stroke="#F1F8FF" stroke-width="0.5" stroke-miterlimit="10"/>
<path d="M880.338 505.499C905.931 505.499 926.678 484.988 926.678 459.686C926.678 434.384 905.931 413.873 880.338 413.873C854.745 413.873 833.998 434.384 833.998 459.686C833.998 484.988 854.745 505.499 880.338 505.499Z" stroke="#F1F8FF" stroke-width="0.5" stroke-miterlimit="10"/>
<path d="M973.018 505.499C998.611 505.499 1019.36 484.988 1019.36 459.686C1019.36 434.384 998.611 413.873 973.018 413.873C947.425 413.873 926.678 434.384 926.678 459.686C926.678 484.988 947.425 505.499 973.018 505.499Z" stroke="#F1F8FF" stroke-width="0.5" stroke-miterlimit="10"/>
<path d="M1065.7 505.499C1091.29 505.499 1112.04 484.988 1112.04 459.686C1112.04 434.384 1091.29 413.873 1065.7 413.873C1040.11 413.873 1019.36 434.384 1019.36 459.686C1019.36 484.988 1040.11 505.499 1065.7 505.499Z" stroke="#F1F8FF" stroke-width="0.5" stroke-miterlimit="10"/>
</g>
<g opacity="0.35">
<path d="M1112.34 93.0616C1137.93 93.0616 1158.68 72.5504 1158.68 47.2486C1158.68 21.9467 1137.93 1.43555 1112.34 1.43555C1086.75 1.43555 1066 21.9467 1066 47.2486C1066 72.5504 1086.75 93.0616 1112.34 93.0616Z" stroke="#F1F8FF" stroke-width="0.5" stroke-miterlimit="10"/>
<path d="M1205.02 93.0616C1230.61 93.0616 1251.36 72.5504 1251.36 47.2486C1251.36 21.9467 1230.61 1.43555 1205.02 1.43555C1179.43 1.43555 1158.68 21.9467 1158.68 47.2486C1158.68 72.5504 1179.43 93.0616 1205.02 93.0616Z" stroke="#F1F8FF" stroke-width="0.5" stroke-miterlimit="10"/>
<path d="M1297.7 93.0596C1323.29 93.0596 1344.04 72.5484 1344.04 47.2466C1344.04 21.9448 1323.29 1.43359 1297.7 1.43359C1272.11 1.43359 1251.36 21.9448 1251.36 47.2466C1251.36 72.5484 1272.11 93.0596 1297.7 93.0596Z" stroke="#F1F8FF" stroke-width="0.5" stroke-miterlimit="10"/>
<path d="M1390 93.0616C1415.59 93.0616 1436.34 72.5504 1436.34 47.2486C1436.34 21.9467 1415.59 1.43555 1390 1.43555C1364.4 1.43555 1343.66 21.9467 1343.66 47.2486C1343.66 72.5504 1364.4 93.0616 1390 93.0616Z" stroke="#F1F8FF" stroke-width="0.5" stroke-miterlimit="10"/>
<path d="M1482.68 93.0596C1508.27 93.0596 1529.02 72.5484 1529.02 47.2466C1529.02 21.9448 1508.27 1.43359 1482.68 1.43359C1457.09 1.43359 1436.34 21.9448 1436.34 47.2466C1436.34 72.5484 1457.09 93.0596 1482.68 93.0596Z" stroke="#F1F8FF" stroke-width="0.5" stroke-miterlimit="10"/>
<path d="M1575.36 93.0596C1600.95 93.0596 1621.7 72.5484 1621.7 47.2466C1621.7 21.9448 1600.95 1.43359 1575.36 1.43359C1549.76 1.43359 1529.02 21.9448 1529.02 47.2466C1529.02 72.5484 1549.76 93.0596 1575.36 93.0596Z" stroke="#F1F8FF" stroke-width="0.5" stroke-miterlimit="10"/>
<path d="M1158.68 47.626C1184.27 47.626 1205.02 27.1149 1205.02 1.81302C1205.02 -23.4888 1184.27 -44 1158.68 -44C1133.09 -44 1112.34 -23.4888 1112.34 1.81302C1112.34 27.1149 1133.09 47.626 1158.68 47.626Z" stroke="#F1F8FF" stroke-width="0.5" stroke-miterlimit="10"/>
<path d="M1251.36 47.626C1276.95 47.626 1297.7 27.1149 1297.7 1.81302C1297.7 -23.4888 1276.95 -44 1251.36 -44C1225.77 -44 1205.02 -23.4888 1205.02 1.81302C1205.02 27.1149 1225.77 47.626 1251.36 47.626Z" stroke="#F1F8FF" stroke-width="0.5" stroke-miterlimit="10"/>
<path d="M1344.04 47.626C1369.63 47.626 1390.38 27.1149 1390.38 1.81302C1390.38 -23.4888 1369.63 -44 1344.04 -44C1318.45 -44 1297.7 -23.4888 1297.7 1.81302C1297.7 27.1149 1318.45 47.626 1344.04 47.626Z" stroke="#F1F8FF" stroke-width="0.5" stroke-miterlimit="10"/>
<path d="M1436.34 47.626C1461.93 47.626 1482.68 27.1149 1482.68 1.81302C1482.68 -23.4888 1461.93 -44 1436.34 -44C1410.75 -44 1390 -23.4888 1390 1.81302C1390 27.1149 1410.75 47.626 1436.34 47.626Z" stroke="#F1F8FF" stroke-width="0.5" stroke-miterlimit="10"/>
<path d="M1529.02 47.626C1554.61 47.626 1575.36 27.1149 1575.36 1.81302C1575.36 -23.4888 1554.61 -44 1529.02 -44C1503.42 -44 1482.68 -23.4888 1482.68 1.81302C1482.68 27.1149 1503.42 47.626 1529.02 47.626Z" stroke="#F1F8FF" stroke-width="0.5" stroke-miterlimit="10"/>
<path d="M1621.7 47.626C1647.29 47.626 1668.04 27.1149 1668.04 1.81302C1668.04 -23.4888 1647.29 -44 1621.7 -44C1596.11 -44 1575.36 -23.4888 1575.36 1.81302C1575.36 27.1149 1596.11 47.626 1621.7 47.626Z" stroke="#F1F8FF" stroke-width="0.5" stroke-miterlimit="10"/>
<path d="M1112.34 184.686C1137.93 184.686 1158.68 164.174 1158.68 138.873C1158.68 113.571 1137.93 93.0596 1112.34 93.0596C1086.75 93.0596 1066 113.571 1066 138.873C1066 164.174 1086.75 184.686 1112.34 184.686Z" stroke="#F1F8FF" stroke-width="0.5" stroke-miterlimit="10"/>
<path d="M1205.02 184.686C1230.61 184.686 1251.36 164.174 1251.36 138.873C1251.36 113.571 1230.61 93.0596 1205.02 93.0596C1179.43 93.0596 1158.68 113.571 1158.68 138.873C1158.68 164.174 1179.43 184.686 1205.02 184.686Z" stroke="#F1F8FF" stroke-width="0.5" stroke-miterlimit="10"/>
<path d="M1297.7 184.686C1323.29 184.686 1344.04 164.174 1344.04 138.873C1344.04 113.571 1323.29 93.0596 1297.7 93.0596C1272.11 93.0596 1251.36 113.571 1251.36 138.873C1251.36 164.174 1272.11 184.686 1297.7 184.686Z" stroke="#F1F8FF" stroke-width="0.5" stroke-miterlimit="10"/>
<path d="M1390 184.686C1415.59 184.686 1436.34 164.174 1436.34 138.873C1436.34 113.571 1415.59 93.0596 1390 93.0596C1364.4 93.0596 1343.66 113.571 1343.66 138.873C1343.66 164.174 1364.4 184.686 1390 184.686Z" stroke="#F1F8FF" stroke-width="0.5" stroke-miterlimit="10"/>
<path d="M1482.68 184.686C1508.27 184.686 1529.02 164.174 1529.02 138.873C1529.02 113.571 1508.27 93.0596 1482.68 93.0596C1457.09 93.0596 1436.34 113.571 1436.34 138.873C1436.34 164.174 1457.09 184.686 1482.68 184.686Z" stroke="#F1F8FF" stroke-width="0.5" stroke-miterlimit="10"/>
<path d="M1575.36 184.686C1600.95 184.686 1621.7 164.174 1621.7 138.873C1621.7 113.571 1600.95 93.0596 1575.36 93.0596C1549.76 93.0596 1529.02 113.571 1529.02 138.873C1529.02 164.174 1549.76 184.686 1575.36 184.686Z" stroke="#F1F8FF" stroke-width="0.5" stroke-miterlimit="10"/>
<path d="M1158.68 138.874C1184.27 138.874 1205.02 118.363 1205.02 93.0611C1205.02 67.7592 1184.27 47.248 1158.68 47.248C1133.09 47.248 1112.34 67.7592 1112.34 93.0611C1112.34 118.363 1133.09 138.874 1158.68 138.874Z" stroke="#F1F8FF" stroke-width="0.5" stroke-miterlimit="10"/>
<path d="M1251.36 138.874C1276.95 138.874 1297.7 118.363 1297.7 93.0611C1297.7 67.7592 1276.95 47.248 1251.36 47.248C1225.77 47.248 1205.02 67.7592 1205.02 93.0611C1205.02 118.363 1225.77 138.874 1251.36 138.874Z" stroke="#F1F8FF" stroke-width="0.5" stroke-miterlimit="10"/>
<path d="M1344.04 138.874C1369.63 138.874 1390.38 118.363 1390.38 93.0611C1390.38 67.7592 1369.63 47.248 1344.04 47.248C1318.45 47.248 1297.7 67.7592 1297.7 93.0611C1297.7 118.363 1318.45 138.874 1344.04 138.874Z" stroke="#F1F8FF" stroke-width="0.5" stroke-miterlimit="10"/>
<path d="M1436.34 138.874C1461.93 138.874 1482.68 118.363 1482.68 93.0611C1482.68 67.7592 1461.93 47.248 1436.34 47.248C1410.75 47.248 1390 67.7592 1390 93.0611C1390 118.363 1410.75 138.874 1436.34 138.874Z" stroke="#F1F8FF" stroke-width="0.5" stroke-miterlimit="10"/>
<path d="M1529.02 138.874C1554.61 138.874 1575.36 118.363 1575.36 93.0611C1575.36 67.7592 1554.61 47.248 1529.02 47.248C1503.42 47.248 1482.68 67.7592 1482.68 93.0611C1482.68 118.363 1503.42 138.874 1529.02 138.874Z" stroke="#F1F8FF" stroke-width="0.5" stroke-miterlimit="10"/>
<path d="M1621.7 138.874C1647.29 138.874 1668.04 118.363 1668.04 93.0611C1668.04 67.7592 1647.29 47.248 1621.7 47.248C1596.11 47.248 1575.36 67.7592 1575.36 93.0611C1575.36 118.363 1596.11 138.874 1621.7 138.874Z" stroke="#F1F8FF" stroke-width="0.5" stroke-miterlimit="10"/>
<path d="M1112.34 276.312C1137.93 276.312 1158.68 255.8 1158.68 230.499C1158.68 205.197 1137.93 184.686 1112.34 184.686C1086.75 184.686 1066 205.197 1066 230.499C1066 255.8 1086.75 276.312 1112.34 276.312Z" stroke="#F1F8FF" stroke-width="0.5" stroke-miterlimit="10"/>
<path d="M1205.02 276.312C1230.61 276.312 1251.36 255.8 1251.36 230.499C1251.36 205.197 1230.61 184.686 1205.02 184.686C1179.43 184.686 1158.68 205.197 1158.68 230.499C1158.68 255.8 1179.43 276.312 1205.02 276.312Z" stroke="#F1F8FF" stroke-width="0.5" stroke-miterlimit="10"/>
<path d="M1297.7 276.312C1323.29 276.312 1344.04 255.8 1344.04 230.499C1344.04 205.197 1323.29 184.686 1297.7 184.686C1272.11 184.686 1251.36 205.197 1251.36 230.499C1251.36 255.8 1272.11 276.312 1297.7 276.312Z" stroke="#F1F8FF" stroke-width="0.5" stroke-miterlimit="10"/>
<path d="M1390 276.313C1415.59 276.313 1436.34 255.801 1436.34 230.5C1436.34 205.198 1415.59 184.687 1390 184.687C1364.4 184.687 1343.66 205.198 1343.66 230.5C1343.66 255.801 1364.4 276.313 1390 276.313Z" stroke="#F1F8FF" stroke-width="0.5" stroke-miterlimit="10"/>
<path d="M1482.68 276.313C1508.27 276.313 1529.02 255.801 1529.02 230.5C1529.02 205.198 1508.27 184.687 1482.68 184.687C1457.09 184.687 1436.34 205.198 1436.34 230.5C1436.34 255.801 1457.09 276.313 1482.68 276.313Z" stroke="#F1F8FF" stroke-width="0.5" stroke-miterlimit="10"/>
<path d="M1575.36 276.313C1600.95 276.313 1621.7 255.801 1621.7 230.5C1621.7 205.198 1600.95 184.687 1575.36 184.687C1549.76 184.687 1529.02 205.198 1529.02 230.5C1529.02 255.801 1549.76 276.313 1575.36 276.313Z" stroke="#F1F8FF" stroke-width="0.5" stroke-miterlimit="10"/>
<path d="M1158.68 230.499C1184.27 230.499 1205.02 209.988 1205.02 184.686C1205.02 159.384 1184.27 138.873 1158.68 138.873C1133.09 138.873 1112.34 159.384 1112.34 184.686C1112.34 209.988 1133.09 230.499 1158.68 230.499Z" stroke="#F1F8FF" stroke-width="0.5" stroke-miterlimit="10"/>
<path d="M1251.36 230.499C1276.95 230.499 1297.7 209.988 1297.7 184.686C1297.7 159.384 1276.95 138.873 1251.36 138.873C1225.77 138.873 1205.02 159.384 1205.02 184.686C1205.02 209.988 1225.77 230.499 1251.36 230.499Z" stroke="#F1F8FF" stroke-width="0.5" stroke-miterlimit="10"/>
<path d="M1344.04 230.499C1369.63 230.499 1390.38 209.988 1390.38 184.686C1390.38 159.384 1369.63 138.873 1344.04 138.873C1318.45 138.873 1297.7 159.384 1297.7 184.686C1297.7 209.988 1318.45 230.499 1344.04 230.499Z" stroke="#F1F8FF" stroke-width="0.5" stroke-miterlimit="10"/>
<path d="M1436.34 230.499C1461.93 230.499 1482.68 209.988 1482.68 184.686C1482.68 159.384 1461.93 138.873 1436.34 138.873C1410.75 138.873 1390 159.384 1390 184.686C1390 209.988 1410.75 230.499 1436.34 230.499Z" stroke="#F1F8FF" stroke-width="0.5" stroke-miterlimit="10"/>
<path d="M1529.02 230.499C1554.61 230.499 1575.36 209.988 1575.36 184.686C1575.36 159.384 1554.61 138.873 1529.02 138.873C1503.42 138.873 1482.68 159.384 1482.68 184.686C1482.68 209.988 1503.42 230.499 1529.02 230.499Z" stroke="#F1F8FF" stroke-width="0.5" stroke-miterlimit="10"/>
<path d="M1621.7 230.499C1647.29 230.499 1668.04 209.988 1668.04 184.686C1668.04 159.384 1647.29 138.873 1621.7 138.873C1596.11 138.873 1575.36 159.384 1575.36 184.686C1575.36 209.988 1596.11 230.499 1621.7 230.499Z" stroke="#F1F8FF" stroke-width="0.5" stroke-miterlimit="10"/>
<path d="M1112.34 368.062C1137.93 368.062 1158.68 347.55 1158.68 322.249C1158.68 296.947 1137.93 276.436 1112.34 276.436C1086.75 276.436 1066 296.947 1066 322.249C1066 347.55 1086.75 368.062 1112.34 368.062Z" stroke="#F1F8FF" stroke-width="0.5" stroke-miterlimit="10"/>
<path d="M1205.02 368.062C1230.61 368.062 1251.36 347.55 1251.36 322.249C1251.36 296.947 1230.61 276.436 1205.02 276.436C1179.43 276.436 1158.68 296.947 1158.68 322.249C1158.68 347.55 1179.43 368.062 1205.02 368.062Z" stroke="#F1F8FF" stroke-width="0.5" stroke-miterlimit="10"/>
<path d="M1297.7 368.06C1323.29 368.06 1344.04 347.548 1344.04 322.247C1344.04 296.945 1323.29 276.434 1297.7 276.434C1272.11 276.434 1251.36 296.945 1251.36 322.247C1251.36 347.548 1272.11 368.06 1297.7 368.06Z" stroke="#F1F8FF" stroke-width="0.5" stroke-miterlimit="10"/>
<path d="M1390 368.062C1415.59 368.062 1436.34 347.55 1436.34 322.249C1436.34 296.947 1415.59 276.436 1390 276.436C1364.4 276.436 1343.66 296.947 1343.66 322.249C1343.66 347.55 1364.4 368.062 1390 368.062Z" stroke="#F1F8FF" stroke-width="0.5" stroke-miterlimit="10"/>
<path d="M1482.68 368.06C1508.27 368.06 1529.02 347.548 1529.02 322.247C1529.02 296.945 1508.27 276.434 1482.68 276.434C1457.09 276.434 1436.34 296.945 1436.34 322.247C1436.34 347.548 1457.09 368.06 1482.68 368.06Z" stroke="#F1F8FF" stroke-width="0.5" stroke-miterlimit="10"/>
<path d="M1575.36 368.06C1600.95 368.06 1621.7 347.548 1621.7 322.247C1621.7 296.945 1600.95 276.434 1575.36 276.434C1549.76 276.434 1529.02 296.945 1529.02 322.247C1529.02 347.548 1549.76 368.06 1575.36 368.06Z" stroke="#F1F8FF" stroke-width="0.5" stroke-miterlimit="10"/>
<path d="M1158.68 322.626C1184.27 322.626 1205.02 302.115 1205.02 276.813C1205.02 251.511 1184.27 231 1158.68 231C1133.09 231 1112.34 251.511 1112.34 276.813C1112.34 302.115 1133.09 322.626 1158.68 322.626Z" stroke="#F1F8FF" stroke-width="0.5" stroke-miterlimit="10"/>
<path d="M1251.36 322.626C1276.95 322.626 1297.7 302.115 1297.7 276.813C1297.7 251.511 1276.95 231 1251.36 231C1225.77 231 1205.02 251.511 1205.02 276.813C1205.02 302.115 1225.77 322.626 1251.36 322.626Z" stroke="#F1F8FF" stroke-width="0.5" stroke-miterlimit="10"/>
<path d="M1344.04 322.626C1369.63 322.626 1390.38 302.115 1390.38 276.813C1390.38 251.511 1369.63 231 1344.04 231C1318.45 231 1297.7 251.511 1297.7 276.813C1297.7 302.115 1318.45 322.626 1344.04 322.626Z" stroke="#F1F8FF" stroke-width="0.5" stroke-miterlimit="10"/>
<path d="M1436.34 322.626C1461.93 322.626 1482.68 302.115 1482.68 276.813C1482.68 251.511 1461.93 231 1436.34 231C1410.75 231 1390 251.511 1390 276.813C1390 302.115 1410.75 322.626 1436.34 322.626Z" stroke="#F1F8FF" stroke-width="0.5" stroke-miterlimit="10"/>
<path d="M1529.02 322.626C1554.61 322.626 1575.36 302.115 1575.36 276.813C1575.36 251.511 1554.61 231 1529.02 231C1503.42 231 1482.68 251.511 1482.68 276.813C1482.68 302.115 1503.42 322.626 1529.02 322.626Z" stroke="#F1F8FF" stroke-width="0.5" stroke-miterlimit="10"/>
<path d="M1621.7 322.626C1647.29 322.626 1668.04 302.115 1668.04 276.813C1668.04 251.511 1647.29 231 1621.7 231C1596.11 231 1575.36 251.511 1575.36 276.813C1575.36 302.115 1596.11 322.626 1621.7 322.626Z" stroke="#F1F8FF" stroke-width="0.5" stroke-miterlimit="10"/>
<path d="M1112.34 459.686C1137.93 459.686 1158.68 439.174 1158.68 413.873C1158.68 388.571 1137.93 368.06 1112.34 368.06C1086.75 368.06 1066 388.571 1066 413.873C1066 439.174 1086.75 459.686 1112.34 459.686Z" stroke="#F1F8FF" stroke-width="0.5" stroke-miterlimit="10"/>
<path d="M1205.02 459.686C1230.61 459.686 1251.36 439.174 1251.36 413.873C1251.36 388.571 1230.61 368.06 1205.02 368.06C1179.43 368.06 1158.68 388.571 1158.68 413.873C1158.68 439.174 1179.43 459.686 1205.02 459.686Z" stroke="#F1F8FF" stroke-width="0.5" stroke-miterlimit="10"/>
<path d="M1297.7 459.686C1323.29 459.686 1344.04 439.174 1344.04 413.873C1344.04 388.571 1323.29 368.06 1297.7 368.06C1272.11 368.06 1251.36 388.571 1251.36 413.873C1251.36 439.174 1272.11 459.686 1297.7 459.686Z" stroke="#F1F8FF" stroke-width="0.5" stroke-miterlimit="10"/>
<path d="M1390 459.686C1415.59 459.686 1436.34 439.174 1436.34 413.873C1436.34 388.571 1415.59 368.06 1390 368.06C1364.4 368.06 1343.66 388.571 1343.66 413.873C1343.66 439.174 1364.4 459.686 1390 459.686Z" stroke="#F1F8FF" stroke-width="0.5" stroke-miterlimit="10"/>
<path d="M1482.68 459.686C1508.27 459.686 1529.02 439.174 1529.02 413.873C1529.02 388.571 1508.27 368.06 1482.68 368.06C1457.09 368.06 1436.34 388.571 1436.34 413.873C1436.34 439.174 1457.09 459.686 1482.68 459.686Z" stroke="#F1F8FF" stroke-width="0.5" stroke-miterlimit="10"/>
<path d="M1575.36 459.686C1600.95 459.686 1621.7 439.174 1621.7 413.873C1621.7 388.571 1600.95 368.06 1575.36 368.06C1549.76 368.06 1529.02 388.571 1529.02 413.873C1529.02 439.174 1549.76 459.686 1575.36 459.686Z" stroke="#F1F8FF" stroke-width="0.5" stroke-miterlimit="10"/>
<path d="M1158.68 413.874C1184.27 413.874 1205.02 393.363 1205.02 368.061C1205.02 342.759 1184.27 322.248 1158.68 322.248C1133.09 322.248 1112.34 342.759 1112.34 368.061C1112.34 393.363 1133.09 413.874 1158.68 413.874Z" stroke="#F1F8FF" stroke-width="0.5" stroke-miterlimit="10"/>
<path d="M1251.36 413.874C1276.95 413.874 1297.7 393.363 1297.7 368.061C1297.7 342.759 1276.95 322.248 1251.36 322.248C1225.77 322.248 1205.02 342.759 1205.02 368.061C1205.02 393.363 1225.77 413.874 1251.36 413.874Z" stroke="#F1F8FF" stroke-width="0.5" stroke-miterlimit="10"/>
<path d="M1344.04 413.874C1369.63 413.874 1390.38 393.363 1390.38 368.061C1390.38 342.759 1369.63 322.248 1344.04 322.248C1318.45 322.248 1297.7 342.759 1297.7 368.061C1297.7 393.363 1318.45 413.874 1344.04 413.874Z" stroke="#F1F8FF" stroke-width="0.5" stroke-miterlimit="10"/>
<path d="M1436.34 413.874C1461.93 413.874 1482.68 393.363 1482.68 368.061C1482.68 342.759 1461.93 322.248 1436.34 322.248C1410.75 322.248 1390 342.759 1390 368.061C1390 393.363 1410.75 413.874 1436.34 413.874Z" stroke="#F1F8FF" stroke-width="0.5" stroke-miterlimit="10"/>
<path d="M1529.02 413.874C1554.61 413.874 1575.36 393.363 1575.36 368.061C1575.36 342.759 1554.61 322.248 1529.02 322.248C1503.42 322.248 1482.68 342.759 1482.68 368.061C1482.68 393.363 1503.42 413.874 1529.02 413.874Z" stroke="#F1F8FF" stroke-width="0.5" stroke-miterlimit="10"/>
<path d="M1621.7 413.874C1647.29 413.874 1668.04 393.363 1668.04 368.061C1668.04 342.759 1647.29 322.248 1621.7 322.248C1596.11 322.248 1575.36 342.759 1575.36 368.061C1575.36 393.363 1596.11 413.874 1621.7 413.874Z" stroke="#F1F8FF" stroke-width="0.5" stroke-miterlimit="10"/>
<path d="M1112.34 551.312C1137.93 551.312 1158.68 530.8 1158.68 505.499C1158.68 480.197 1137.93 459.686 1112.34 459.686C1086.75 459.686 1066 480.197 1066 505.499C1066 530.8 1086.75 551.312 1112.34 551.312Z" stroke="#F1F8FF" stroke-width="0.5" stroke-miterlimit="10"/>
<path d="M1205.02 551.312C1230.61 551.312 1251.36 530.8 1251.36 505.499C1251.36 480.197 1230.61 459.686 1205.02 459.686C1179.43 459.686 1158.68 480.197 1158.68 505.499C1158.68 530.8 1179.43 551.312 1205.02 551.312Z" stroke="#F1F8FF" stroke-width="0.5" stroke-miterlimit="10"/>
<path d="M1297.7 551.312C1323.29 551.312 1344.04 530.8 1344.04 505.499C1344.04 480.197 1323.29 459.686 1297.7 459.686C1272.11 459.686 1251.36 480.197 1251.36 505.499C1251.36 530.8 1272.11 551.312 1297.7 551.312Z" stroke="#F1F8FF" stroke-width="0.5" stroke-miterlimit="10"/>
<path d="M1390 551.313C1415.59 551.313 1436.34 530.801 1436.34 505.5C1436.34 480.198 1415.59 459.687 1390 459.687C1364.4 459.687 1343.66 480.198 1343.66 505.5C1343.66 530.801 1364.4 551.313 1390 551.313Z" stroke="#F1F8FF" stroke-width="0.5" stroke-miterlimit="10"/>
<path d="M1482.68 551.313C1508.27 551.313 1529.02 530.801 1529.02 505.5C1529.02 480.198 1508.27 459.687 1482.68 459.687C1457.09 459.687 1436.34 480.198 1436.34 505.5C1436.34 530.801 1457.09 551.313 1482.68 551.313Z" stroke="#F1F8FF" stroke-width="0.5" stroke-miterlimit="10"/>
<path d="M1575.36 551.313C1600.95 551.313 1621.7 530.801 1621.7 505.5C1621.7 480.198 1600.95 459.687 1575.36 459.687C1549.76 459.687 1529.02 480.198 1529.02 505.5C1529.02 530.801 1549.76 551.313 1575.36 551.313Z" stroke="#F1F8FF" stroke-width="0.5" stroke-miterlimit="10"/>
<path d="M1158.68 505.499C1184.27 505.499 1205.02 484.988 1205.02 459.686C1205.02 434.384 1184.27 413.873 1158.68 413.873C1133.09 413.873 1112.34 434.384 1112.34 459.686C1112.34 484.988 1133.09 505.499 1158.68 505.499Z" stroke="#F1F8FF" stroke-width="0.5" stroke-miterlimit="10"/>
<path d="M1251.36 505.499C1276.95 505.499 1297.7 484.988 1297.7 459.686C1297.7 434.384 1276.95 413.873 1251.36 413.873C1225.77 413.873 1205.02 434.384 1205.02 459.686C1205.02 484.988 1225.77 505.499 1251.36 505.499Z" stroke="#F1F8FF" stroke-width="0.5" stroke-miterlimit="10"/>
<path d="M1344.04 505.499C1369.63 505.499 1390.38 484.988 1390.38 459.686C1390.38 434.384 1369.63 413.873 1344.04 413.873C1318.45 413.873 1297.7 434.384 1297.7 459.686C1297.7 484.988 1318.45 505.499 1344.04 505.499Z" stroke="#F1F8FF" stroke-width="0.5" stroke-miterlimit="10"/>
<path d="M1436.34 505.499C1461.93 505.499 1482.68 484.988 1482.68 459.686C1482.68 434.384 1461.93 413.873 1436.34 413.873C1410.75 413.873 1390 434.384 1390 459.686C1390 484.988 1410.75 505.499 1436.34 505.499Z" stroke="#F1F8FF" stroke-width="0.5" stroke-miterlimit="10"/>
<path d="M1529.02 505.499C1554.61 505.499 1575.36 484.988 1575.36 459.686C1575.36 434.384 1554.61 413.873 1529.02 413.873C1503.42 413.873 1482.68 434.384 1482.68 459.686C1482.68 484.988 1503.42 505.499 1529.02 505.499Z" stroke="#F1F8FF" stroke-width="0.5" stroke-miterlimit="10"/>
<path d="M1621.7 505.499C1647.29 505.499 1668.04 484.988 1668.04 459.686C1668.04 434.384 1647.29 413.873 1621.7 413.873C1596.11 413.873 1575.36 434.384 1575.36 459.686C1575.36 484.988 1596.11 505.499 1621.7 505.499Z" stroke="#F1F8FF" stroke-width="0.5" stroke-miterlimit="10"/>
</g>
<g opacity="0.35">
<path d="M0.340137 643.062C25.9331 643.062 46.6803 622.55 46.6803 597.249C46.6803 571.947 25.9331 551.436 0.340137 551.436C-25.2528 551.436 -46 571.947 -46 597.249C-46 622.55 -25.2528 643.062 0.340137 643.062Z" stroke="#F1F8FF" stroke-width="0.5" stroke-miterlimit="10"/>
<path d="M93.0208 643.062C118.614 643.062 139.361 622.55 139.361 597.249C139.361 571.947 118.614 551.436 93.0208 551.436C67.4279 551.436 46.6807 571.947 46.6807 597.249C46.6807 622.55 67.4279 643.062 93.0208 643.062Z" stroke="#F1F8FF" stroke-width="0.5" stroke-miterlimit="10"/>
<path d="M185.699 643.06C211.292 643.06 232.04 622.548 232.04 597.247C232.04 571.945 211.292 551.434 185.699 551.434C160.107 551.434 139.359 571.945 139.359 597.247C139.359 622.548 160.107 643.06 185.699 643.06Z" stroke="#F1F8FF" stroke-width="0.5" stroke-miterlimit="10"/>
<path d="M277.997 643.062C303.59 643.062 324.337 622.55 324.337 597.249C324.337 571.947 303.59 551.436 277.997 551.436C252.404 551.436 231.657 571.947 231.657 597.249C231.657 622.55 252.404 643.062 277.997 643.062Z" stroke="#F1F8FF" stroke-width="0.5" stroke-miterlimit="10"/>
<path d="M370.679 643.06C396.272 643.06 417.019 622.548 417.019 597.247C417.019 571.945 396.272 551.434 370.679 551.434C345.086 551.434 324.339 571.945 324.339 597.247C324.339 622.548 345.086 643.06 370.679 643.06Z" stroke="#F1F8FF" stroke-width="0.5" stroke-miterlimit="10"/>
<path d="M463.358 643.06C488.951 643.06 509.698 622.548 509.698 597.247C509.698 571.945 488.951 551.434 463.358 551.434C437.765 551.434 417.018 571.945 417.018 597.247C417.018 622.548 437.765 643.06 463.358 643.06Z" stroke="#F1F8FF" stroke-width="0.5" stroke-miterlimit="10"/>
<path d="M46.6811 597.626C72.274 597.626 93.0212 577.115 93.0212 551.813C93.0212 526.511 72.274 506 46.6811 506C21.0881 506 0.340942 526.511 0.340942 551.813C0.340942 577.115 21.0881 597.626 46.6811 597.626Z" stroke="#F1F8FF" stroke-width="0.5" stroke-miterlimit="10"/>
<path d="M139.359 597.626C164.952 597.626 185.699 577.115 185.699 551.813C185.699 526.511 164.952 506 139.359 506C113.766 506 93.0186 526.511 93.0186 551.813C93.0186 577.115 113.766 597.626 139.359 597.626Z" stroke="#F1F8FF" stroke-width="0.5" stroke-miterlimit="10"/>
<path d="M232.041 597.626C257.634 597.626 278.381 577.115 278.381 551.813C278.381 526.511 257.634 506 232.041 506C206.448 506 185.701 526.511 185.701 551.813C185.701 577.115 206.448 597.626 232.041 597.626Z" stroke="#F1F8FF" stroke-width="0.5" stroke-miterlimit="10"/>
<path d="M324.338 597.626C349.931 597.626 370.678 577.115 370.678 551.813C370.678 526.511 349.931 506 324.338 506C298.745 506 277.998 526.511 277.998 551.813C277.998 577.115 298.745 597.626 324.338 597.626Z" stroke="#F1F8FF" stroke-width="0.5" stroke-miterlimit="10"/>
<path d="M417.018 597.626C442.611 597.626 463.358 577.115 463.358 551.813C463.358 526.511 442.611 506 417.018 506C391.425 506 370.678 526.511 370.678 551.813C370.678 577.115 391.425 597.626 417.018 597.626Z" stroke="#F1F8FF" stroke-width="0.5" stroke-miterlimit="10"/>
<path d="M509.7 597.626C535.293 597.626 556.04 577.115 556.04 551.813C556.04 526.511 535.293 506 509.7 506C484.107 506 463.359 526.511 463.359 551.813C463.359 577.115 484.107 597.626 509.7 597.626Z" stroke="#F1F8FF" stroke-width="0.5" stroke-miterlimit="10"/>
<path d="M0.340137 734.686C25.9331 734.686 46.6803 714.174 46.6803 688.873C46.6803 663.571 25.9331 643.06 0.340137 643.06C-25.2528 643.06 -46 663.571 -46 688.873C-46 714.174 -25.2528 734.686 0.340137 734.686Z" stroke="#F1F8FF" stroke-width="0.5" stroke-miterlimit="10"/>
<path d="M93.0208 734.686C118.614 734.686 139.361 714.174 139.361 688.873C139.361 663.571 118.614 643.06 93.0208 643.06C67.4279 643.06 46.6807 663.571 46.6807 688.873C46.6807 714.174 67.4279 734.686 93.0208 734.686Z" stroke="#F1F8FF" stroke-width="0.5" stroke-miterlimit="10"/>
<path d="M185.699 734.686C211.292 734.686 232.04 714.174 232.04 688.873C232.04 663.571 211.292 643.06 185.699 643.06C160.107 643.06 139.359 663.571 139.359 688.873C139.359 714.174 160.107 734.686 185.699 734.686Z" stroke="#F1F8FF" stroke-width="0.5" stroke-miterlimit="10"/>
<path d="M277.997 734.686C303.59 734.686 324.337 714.174 324.337 688.873C324.337 663.571 303.59 643.06 277.997 643.06C252.404 643.06 231.657 663.571 231.657 688.873C231.657 714.174 252.404 734.686 277.997 734.686Z" stroke="#F1F8FF" stroke-width="0.5" stroke-miterlimit="10"/>
<path d="M370.679 734.686C396.272 734.686 417.019 714.174 417.019 688.873C417.019 663.571 396.272 643.06 370.679 643.06C345.086 643.06 324.339 663.571 324.339 688.873C324.339 714.174 345.086 734.686 370.679 734.686Z" stroke="#F1F8FF" stroke-width="0.5" stroke-miterlimit="10"/>
<path d="M463.358 734.686C488.951 734.686 509.698 714.174 509.698 688.873C509.698 663.571 488.951 643.06 463.358 643.06C437.765 643.06 417.018 663.571 417.018 688.873C417.018 714.174 437.765 734.686 463.358 734.686Z" stroke="#F1F8FF" stroke-width="0.5" stroke-miterlimit="10"/>
<path d="M46.6809 688.874C72.2739 688.874 93.0211 668.363 93.0211 643.061C93.0211 617.759 72.2739 597.248 46.6809 597.248C21.088 597.248 0.34082 617.759 0.34082 643.061C0.34082 668.363 21.088 688.874 46.6809 688.874Z" stroke="#F1F8FF" stroke-width="0.5" stroke-miterlimit="10"/>
<path d="M139.359 688.874C164.952 688.874 185.699 668.363 185.699 643.061C185.699 617.759 164.952 597.248 139.359 597.248C113.766 597.248 93.0186 617.759 93.0186 643.061C93.0186 668.363 113.766 688.874 139.359 688.874Z" stroke="#F1F8FF" stroke-width="0.5" stroke-miterlimit="10"/>
<path d="M232.041 688.874C257.634 688.874 278.381 668.363 278.381 643.061C278.381 617.759 257.634 597.248 232.041 597.248C206.448 597.248 185.701 617.759 185.701 643.061C185.701 668.363 206.448 688.874 232.041 688.874Z" stroke="#F1F8FF" stroke-width="0.5" stroke-miterlimit="10"/>
<path d="M324.338 688.874C349.931 688.874 370.678 668.363 370.678 643.061C370.678 617.759 349.931 597.248 324.338 597.248C298.745 597.248 277.998 617.759 277.998 643.061C277.998 668.363 298.745 688.874 324.338 688.874Z" stroke="#F1F8FF" stroke-width="0.5" stroke-miterlimit="10"/>
<path d="M417.018 688.874C442.611 688.874 463.358 668.363 463.358 643.061C463.358 617.759 442.611 597.248 417.018 597.248C391.425 597.248 370.678 617.759 370.678 643.061C370.678 668.363 391.425 688.874 417.018 688.874Z" stroke="#F1F8FF" stroke-width="0.5" stroke-miterlimit="10"/>
<path d="M509.7 688.874C535.293 688.874 556.04 668.363 556.04 643.061C556.04 617.759 535.293 597.248 509.7 597.248C484.107 597.248 463.359 617.759 463.359 643.061C463.359 668.363 484.107 688.874 509.7 688.874Z" stroke="#F1F8FF" stroke-width="0.5" stroke-miterlimit="10"/>
<path d="M0.340137 826.312C25.9331 826.312 46.6803 805.8 46.6803 780.499C46.6803 755.197 25.9331 734.686 0.340137 734.686C-25.2528 734.686 -46 755.197 -46 780.499C-46 805.8 -25.2528 826.312 0.340137 826.312Z" stroke="#F1F8FF" stroke-width="0.5" stroke-miterlimit="10"/>
<path d="M93.0208 826.312C118.614 826.312 139.361 805.8 139.361 780.499C139.361 755.197 118.614 734.686 93.0208 734.686C67.4279 734.686 46.6807 755.197 46.6807 780.499C46.6807 805.8 67.4279 826.312 93.0208 826.312Z" stroke="#F1F8FF" stroke-width="0.5" stroke-miterlimit="10"/>
<path d="M185.699 826.312C211.292 826.312 232.04 805.8 232.04 780.499C232.04 755.197 211.292 734.686 185.699 734.686C160.107 734.686 139.359 755.197 139.359 780.499C139.359 805.8 160.107 826.312 185.699 826.312Z" stroke="#F1F8FF" stroke-width="0.5" stroke-miterlimit="10"/>
<path d="M277.997 826.313C303.59 826.313 324.337 805.801 324.337 780.5C324.337 755.198 303.59 734.687 277.997 734.687C252.404 734.687 231.657 755.198 231.657 780.5C231.657 805.801 252.404 826.313 277.997 826.313Z" stroke="#F1F8FF" stroke-width="0.5" stroke-miterlimit="10"/>
<path d="M370.679 826.313C396.272 826.313 417.019 805.801 417.019 780.5C417.019 755.198 396.272 734.687 370.679 734.687C345.086 734.687 324.339 755.198 324.339 780.5C324.339 805.801 345.086 826.313 370.679 826.313Z" stroke="#F1F8FF" stroke-width="0.5" stroke-miterlimit="10"/>
<path d="M463.358 826.313C488.951 826.313 509.698 805.801 509.698 780.5C509.698 755.198 488.951 734.687 463.358 734.687C437.765 734.687 417.018 755.198 417.018 780.5C417.018 805.801 437.765 826.313 463.358 826.313Z" stroke="#F1F8FF" stroke-width="0.5" stroke-miterlimit="10"/>
<path d="M46.6809 780.499C72.2739 780.499 93.0211 759.988 93.0211 734.686C93.0211 709.384 72.2739 688.873 46.6809 688.873C21.088 688.873 0.34082 709.384 0.34082 734.686C0.34082 759.988 21.088 780.499 46.6809 780.499Z" stroke="#F1F8FF" stroke-width="0.5" stroke-miterlimit="10"/>
<path d="M139.361 780.499C164.954 780.499 185.701 759.988 185.701 734.686C185.701 709.384 164.954 688.873 139.361 688.873C113.768 688.873 93.0205 709.384 93.0205 734.686C93.0205 759.988 113.768 780.499 139.361 780.499Z" stroke="#F1F8FF" stroke-width="0.5" stroke-miterlimit="10"/>
<path d="M232.041 780.499C257.634 780.499 278.381 759.988 278.381 734.686C278.381 709.384 257.634 688.873 232.041 688.873C206.448 688.873 185.701 709.384 185.701 734.686C185.701 759.988 206.448 780.499 232.041 780.499Z" stroke="#F1F8FF" stroke-width="0.5" stroke-miterlimit="10"/>
<path d="M324.338 780.499C349.931 780.499 370.678 759.988 370.678 734.686C370.678 709.384 349.931 688.873 324.338 688.873C298.745 688.873 277.998 709.384 277.998 734.686C277.998 759.988 298.745 780.499 324.338 780.499Z" stroke="#F1F8FF" stroke-width="0.5" stroke-miterlimit="10"/>
<path d="M417.018 780.499C442.611 780.499 463.358 759.988 463.358 734.686C463.358 709.384 442.611 688.873 417.018 688.873C391.425 688.873 370.678 709.384 370.678 734.686C370.678 759.988 391.425 780.499 417.018 780.499Z" stroke="#F1F8FF" stroke-width="0.5" stroke-miterlimit="10"/>
<path d="M509.7 780.499C535.293 780.499 556.04 759.988 556.04 734.686C556.04 709.384 535.293 688.873 509.7 688.873C484.107 688.873 463.359 709.384 463.359 734.686C463.359 759.988 484.107 780.499 509.7 780.499Z" stroke="#F1F8FF" stroke-width="0.5" stroke-miterlimit="10"/>
<path d="M46.6809 872.626C72.2739 872.626 93.0211 852.115 93.0211 826.813C93.0211 801.511 72.2739 781 46.6809 781C21.088 781 0.34082 801.511 0.34082 826.813C0.34082 852.115 21.088 872.626 46.6809 872.626Z" stroke="#F1F8FF" stroke-width="0.5" stroke-miterlimit="10"/>
<path d="M139.359 872.626C164.952 872.626 185.699 852.115 185.699 826.813C185.699 801.511 164.952 781 139.359 781C113.766 781 93.0186 801.511 93.0186 826.813C93.0186 852.115 113.766 872.626 139.359 872.626Z" stroke="#F1F8FF" stroke-width="0.5" stroke-miterlimit="10"/>
<path d="M232.041 872.626C257.634 872.626 278.381 852.115 278.381 826.813C278.381 801.511 257.634 781 232.041 781C206.448 781 185.701 801.511 185.701 826.813C185.701 852.115 206.448 872.626 232.041 872.626Z" stroke="#F1F8FF" stroke-width="0.5" stroke-miterlimit="10"/>
<path d="M324.338 872.626C349.931 872.626 370.678 852.115 370.678 826.813C370.678 801.511 349.931 781 324.338 781C298.745 781 277.998 801.511 277.998 826.813C277.998 852.115 298.745 872.626 324.338 872.626Z" stroke="#F1F8FF" stroke-width="0.5" stroke-miterlimit="10"/>
<path d="M417.018 872.626C442.611 872.626 463.358 852.115 463.358 826.813C463.358 801.511 442.611 781 417.018 781C391.425 781 370.678 801.511 370.678 826.813C370.678 852.115 391.425 872.626 417.018 872.626Z" stroke="#F1F8FF" stroke-width="0.5" stroke-miterlimit="10"/>
<path d="M509.7 872.626C535.293 872.626 556.04 852.115 556.04 826.813C556.04 801.511 535.293 781 509.7 781C484.107 781 463.359 801.511 463.359 826.813C463.359 852.115 484.107 872.626 509.7 872.626Z" stroke="#F1F8FF" stroke-width="0.5" stroke-miterlimit="10"/>
</g>
<g opacity="0.35">
<path d="M556.34 643.062C581.933 643.062 602.68 622.55 602.68 597.249C602.68 571.947 581.933 551.436 556.34 551.436C530.747 551.436 510 571.947 510 597.249C510 622.55 530.747 643.062 556.34 643.062Z" stroke="#F1F8FF" stroke-width="0.5" stroke-miterlimit="10"/>
<path d="M649.021 643.062C674.614 643.062 695.361 622.55 695.361 597.249C695.361 571.947 674.614 551.436 649.021 551.436C623.428 551.436 602.681 571.947 602.681 597.249C602.681 622.55 623.428 643.062 649.021 643.062Z" stroke="#F1F8FF" stroke-width="0.5" stroke-miterlimit="10"/>
<path d="M741.699 643.06C767.292 643.06 788.04 622.548 788.04 597.247C788.04 571.945 767.292 551.434 741.699 551.434C716.107 551.434 695.359 571.945 695.359 597.247C695.359 622.548 716.107 643.06 741.699 643.06Z" stroke="#F1F8FF" stroke-width="0.5" stroke-miterlimit="10"/>
<path d="M833.997 643.062C859.59 643.062 880.337 622.55 880.337 597.249C880.337 571.947 859.59 551.436 833.997 551.436C808.404 551.436 787.657 571.947 787.657 597.249C787.657 622.55 808.404 643.062 833.997 643.062Z" stroke="#F1F8FF" stroke-width="0.5" stroke-miterlimit="10"/>
<path d="M926.679 643.06C952.272 643.06 973.019 622.548 973.019 597.247C973.019 571.945 952.272 551.434 926.679 551.434C901.086 551.434 880.339 571.945 880.339 597.247C880.339 622.548 901.086 643.06 926.679 643.06Z" stroke="#F1F8FF" stroke-width="0.5" stroke-miterlimit="10"/>
<path d="M1019.36 643.06C1044.95 643.06 1065.7 622.548 1065.7 597.247C1065.7 571.945 1044.95 551.434 1019.36 551.434C993.765 551.434 973.018 571.945 973.018 597.247C973.018 622.548 993.765 643.06 1019.36 643.06Z" stroke="#F1F8FF" stroke-width="0.5" stroke-miterlimit="10"/>
<path d="M602.681 597.626C628.274 597.626 649.021 577.115 649.021 551.813C649.021 526.511 628.274 506 602.681 506C577.088 506 556.341 526.511 556.341 551.813C556.341 577.115 577.088 597.626 602.681 597.626Z" stroke="#F1F8FF" stroke-width="0.5" stroke-miterlimit="10"/>
<path d="M695.359 597.626C720.952 597.626 741.699 577.115 741.699 551.813C741.699 526.511 720.952 506 695.359 506C669.766 506 649.019 526.511 649.019 551.813C649.019 577.115 669.766 597.626 695.359 597.626Z" stroke="#F1F8FF" stroke-width="0.5" stroke-miterlimit="10"/>
<path d="M788.041 597.626C813.634 597.626 834.381 577.115 834.381 551.813C834.381 526.511 813.634 506 788.041 506C762.448 506 741.701 526.511 741.701 551.813C741.701 577.115 762.448 597.626 788.041 597.626Z" stroke="#F1F8FF" stroke-width="0.5" stroke-miterlimit="10"/>
<path d="M880.338 597.626C905.931 597.626 926.678 577.115 926.678 551.813C926.678 526.511 905.931 506 880.338 506C854.745 506 833.998 526.511 833.998 551.813C833.998 577.115 854.745 597.626 880.338 597.626Z" stroke="#F1F8FF" stroke-width="0.5" stroke-miterlimit="10"/>
<path d="M973.018 597.626C998.611 597.626 1019.36 577.115 1019.36 551.813C1019.36 526.511 998.611 506 973.018 506C947.425 506 926.678 526.511 926.678 551.813C926.678 577.115 947.425 597.626 973.018 597.626Z" stroke="#F1F8FF" stroke-width="0.5" stroke-miterlimit="10"/>
<path d="M1065.7 597.626C1091.29 597.626 1112.04 577.115 1112.04 551.813C1112.04 526.511 1091.29 506 1065.7 506C1040.11 506 1019.36 526.511 1019.36 551.813C1019.36 577.115 1040.11 597.626 1065.7 597.626Z" stroke="#F1F8FF" stroke-width="0.5" stroke-miterlimit="10"/>
<path d="M556.34 734.686C581.933 734.686 602.68 714.174 602.68 688.873C602.68 663.571 581.933 643.06 556.34 643.06C530.747 643.06 510 663.571 510 688.873C510 714.174 530.747 734.686 556.34 734.686Z" stroke="#F1F8FF" stroke-width="0.5" stroke-miterlimit="10"/>
<path d="M649.021 734.686C674.614 734.686 695.361 714.174 695.361 688.873C695.361 663.571 674.614 643.06 649.021 643.06C623.428 643.06 602.681 663.571 602.681 688.873C602.681 714.174 623.428 734.686 649.021 734.686Z" stroke="#F1F8FF" stroke-width="0.5" stroke-miterlimit="10"/>
<path d="M741.699 734.686C767.292 734.686 788.04 714.174 788.04 688.873C788.04 663.571 767.292 643.06 741.699 643.06C716.107 643.06 695.359 663.571 695.359 688.873C695.359 714.174 716.107 734.686 741.699 734.686Z" stroke="#F1F8FF" stroke-width="0.5" stroke-miterlimit="10"/>
<path d="M833.997 734.686C859.59 734.686 880.337 714.174 880.337 688.873C880.337 663.571 859.59 643.06 833.997 643.06C808.404 643.06 787.657 663.571 787.657 688.873C787.657 714.174 808.404 734.686 833.997 734.686Z" stroke="#F1F8FF" stroke-width="0.5" stroke-miterlimit="10"/>
<path d="M926.679 734.686C952.272 734.686 973.019 714.174 973.019 688.873C973.019 663.571 952.272 643.06 926.679 643.06C901.086 643.06 880.339 663.571 880.339 688.873C880.339 714.174 901.086 734.686 926.679 734.686Z" stroke="#F1F8FF" stroke-width="0.5" stroke-miterlimit="10"/>
<path d="M1019.36 734.686C1044.95 734.686 1065.7 714.174 1065.7 688.873C1065.7 663.571 1044.95 643.06 1019.36 643.06C993.765 643.06 973.018 663.571 973.018 688.873C973.018 714.174 993.765 734.686 1019.36 734.686Z" stroke="#F1F8FF" stroke-width="0.5" stroke-miterlimit="10"/>
<path d="M602.681 688.874C628.274 688.874 649.021 668.363 649.021 643.061C649.021 617.759 628.274 597.248 602.681 597.248C577.088 597.248 556.341 617.759 556.341 643.061C556.341 668.363 577.088 688.874 602.681 688.874Z" stroke="#F1F8FF" stroke-width="0.5" stroke-miterlimit="10"/>
<path d="M695.359 688.874C720.952 688.874 741.699 668.363 741.699 643.061C741.699 617.759 720.952 597.248 695.359 597.248C669.766 597.248 649.019 617.759 649.019 643.061C649.019 668.363 669.766 688.874 695.359 688.874Z" stroke="#F1F8FF" stroke-width="0.5" stroke-miterlimit="10"/>
<path d="M788.041 688.874C813.634 688.874 834.381 668.363 834.381 643.061C834.381 617.759 813.634 597.248 788.041 597.248C762.448 597.248 741.701 617.759 741.701 643.061C741.701 668.363 762.448 688.874 788.041 688.874Z" stroke="#F1F8FF" stroke-width="0.5" stroke-miterlimit="10"/>
<path d="M880.338 688.874C905.931 688.874 926.678 668.363 926.678 643.061C926.678 617.759 905.931 597.248 880.338 597.248C854.745 597.248 833.998 617.759 833.998 643.061C833.998 668.363 854.745 688.874 880.338 688.874Z" stroke="#F1F8FF" stroke-width="0.5" stroke-miterlimit="10"/>
<path d="M973.018 688.874C998.611 688.874 1019.36 668.363 1019.36 643.061C1019.36 617.759 998.611 597.248 973.018 597.248C947.425 597.248 926.678 617.759 926.678 643.061C926.678 668.363 947.425 688.874 973.018 688.874Z" stroke="#F1F8FF" stroke-width="0.5" stroke-miterlimit="10"/>
<path d="M1065.7 688.874C1091.29 688.874 1112.04 668.363 1112.04 643.061C1112.04 617.759 1091.29 597.248 1065.7 597.248C1040.11 597.248 1019.36 617.759 1019.36 643.061C1019.36 668.363 1040.11 688.874 1065.7 688.874Z" stroke="#F1F8FF" stroke-width="0.5" stroke-miterlimit="10"/>
<path d="M556.34 826.312C581.933 826.312 602.68 805.8 602.68 780.499C602.68 755.197 581.933 734.686 556.34 734.686C530.747 734.686 510 755.197 510 780.499C510 805.8 530.747 826.312 556.34 826.312Z" stroke="#F1F8FF" stroke-width="0.5" stroke-miterlimit="10"/>
<path d="M649.021 826.312C674.614 826.312 695.361 805.8 695.361 780.499C695.361 755.197 674.614 734.686 649.021 734.686C623.428 734.686 602.681 755.197 602.681 780.499C602.681 805.8 623.428 826.312 649.021 826.312Z" stroke="#F1F8FF" stroke-width="0.5" stroke-miterlimit="10"/>
<path d="M741.699 826.312C767.292 826.312 788.04 805.8 788.04 780.499C788.04 755.197 767.292 734.686 741.699 734.686C716.107 734.686 695.359 755.197 695.359 780.499C695.359 805.8 716.107 826.312 741.699 826.312Z" stroke="#F1F8FF" stroke-width="0.5" stroke-miterlimit="10"/>
<path d="M833.997 826.313C859.59 826.313 880.337 805.801 880.337 780.5C880.337 755.198 859.59 734.687 833.997 734.687C808.404 734.687 787.657 755.198 787.657 780.5C787.657 805.801 808.404 826.313 833.997 826.313Z" stroke="#F1F8FF" stroke-width="0.5" stroke-miterlimit="10"/>
<path d="M926.679 826.313C952.272 826.313 973.019 805.801 973.019 780.5C973.019 755.198 952.272 734.687 926.679 734.687C901.086 734.687 880.339 755.198 880.339 780.5C880.339 805.801 901.086 826.313 926.679 826.313Z" stroke="#F1F8FF" stroke-width="0.5" stroke-miterlimit="10"/>
<path d="M1019.36 826.313C1044.95 826.313 1065.7 805.801 1065.7 780.5C1065.7 755.198 1044.95 734.687 1019.36 734.687C993.765 734.687 973.018 755.198 973.018 780.5C973.018 805.801 993.765 826.313 1019.36 826.313Z" stroke="#F1F8FF" stroke-width="0.5" stroke-miterlimit="10"/>
<path d="M602.681 780.499C628.274 780.499 649.021 759.988 649.021 734.686C649.021 709.384 628.274 688.873 602.681 688.873C577.088 688.873 556.341 709.384 556.341 734.686C556.341 759.988 577.088 780.499 602.681 780.499Z" stroke="#F1F8FF" stroke-width="0.5" stroke-miterlimit="10"/>
<path d="M695.361 780.499C720.954 780.499 741.701 759.988 741.701 734.686C741.701 709.384 720.954 688.873 695.361 688.873C669.768 688.873 649.021 709.384 649.021 734.686C649.021 759.988 669.768 780.499 695.361 780.499Z" stroke="#F1F8FF" stroke-width="0.5" stroke-miterlimit="10"/>
<path d="M788.041 780.499C813.634 780.499 834.381 759.988 834.381 734.686C834.381 709.384 813.634 688.873 788.041 688.873C762.448 688.873 741.701 709.384 741.701 734.686C741.701 759.988 762.448 780.499 788.041 780.499Z" stroke="#F1F8FF" stroke-width="0.5" stroke-miterlimit="10"/>
<path d="M880.338 780.499C905.931 780.499 926.678 759.988 926.678 734.686C926.678 709.384 905.931 688.873 880.338 688.873C854.745 688.873 833.998 709.384 833.998 734.686C833.998 759.988 854.745 780.499 880.338 780.499Z" stroke="#F1F8FF" stroke-width="0.5" stroke-miterlimit="10"/>
<path d="M973.018 780.499C998.611 780.499 1019.36 759.988 1019.36 734.686C1019.36 709.384 998.611 688.873 973.018 688.873C947.425 688.873 926.678 709.384 926.678 734.686C926.678 759.988 947.425 780.499 973.018 780.499Z" stroke="#F1F8FF" stroke-width="0.5" stroke-miterlimit="10"/>
<path d="M1065.7 780.499C1091.29 780.499 1112.04 759.988 1112.04 734.686C1112.04 709.384 1091.29 688.873 1065.7 688.873C1040.11 688.873 1019.36 709.384 1019.36 734.686C1019.36 759.988 1040.11 780.499 1065.7 780.499Z" stroke="#F1F8FF" stroke-width="0.5" stroke-miterlimit="10"/>
<path d="M602.681 872.626C628.274 872.626 649.021 852.115 649.021 826.813C649.021 801.511 628.274 781 602.681 781C577.088 781 556.341 801.511 556.341 826.813C556.341 852.115 577.088 872.626 602.681 872.626Z" stroke="#F1F8FF" stroke-width="0.5" stroke-miterlimit="10"/>
<path d="M695.359 872.626C720.952 872.626 741.699 852.115 741.699 826.813C741.699 801.511 720.952 781 695.359 781C669.766 781 649.019 801.511 649.019 826.813C649.019 852.115 669.766 872.626 695.359 872.626Z" stroke="#F1F8FF" stroke-width="0.5" stroke-miterlimit="10"/>
<path d="M788.041 872.626C813.634 872.626 834.381 852.115 834.381 826.813C834.381 801.511 813.634 781 788.041 781C762.448 781 741.701 801.511 741.701 826.813C741.701 852.115 762.448 872.626 788.041 872.626Z" stroke="#F1F8FF" stroke-width="0.5" stroke-miterlimit="10"/>
<path d="M880.338 872.626C905.931 872.626 926.678 852.115 926.678 826.813C926.678 801.511 905.931 781 880.338 781C854.745 781 833.998 801.511 833.998 826.813C833.998 852.115 854.745 872.626 880.338 872.626Z" stroke="#F1F8FF" stroke-width="0.5" stroke-miterlimit="10"/>
<path d="M973.018 872.626C998.611 872.626 1019.36 852.115 1019.36 826.813C1019.36 801.511 998.611 781 973.018 781C947.425 781 926.678 801.511 926.678 826.813C926.678 852.115 947.425 872.626 973.018 872.626Z" stroke="#F1F8FF" stroke-width="0.5" stroke-miterlimit="10"/>
<path d="M1065.7 872.626C1091.29 872.626 1112.04 852.115 1112.04 826.813C1112.04 801.511 1091.29 781 1065.7 781C1040.11 781 1019.36 801.511 1019.36 826.813C1019.36 852.115 1040.11 872.626 1065.7 872.626Z" stroke="#F1F8FF" stroke-width="0.5" stroke-miterlimit="10"/>
</g>
<g opacity="0.35">
<path d="M1112.34 643.062C1137.93 643.062 1158.68 622.55 1158.68 597.249C1158.68 571.947 1137.93 551.436 1112.34 551.436C1086.75 551.436 1066 571.947 1066 597.249C1066 622.55 1086.75 643.062 1112.34 643.062Z" stroke="#F1F8FF" stroke-width="0.5" stroke-miterlimit="10"/>
<path d="M1205.02 643.062C1230.61 643.062 1251.36 622.55 1251.36 597.249C1251.36 571.947 1230.61 551.436 1205.02 551.436C1179.43 551.436 1158.68 571.947 1158.68 597.249C1158.68 622.55 1179.43 643.062 1205.02 643.062Z" stroke="#F1F8FF" stroke-width="0.5" stroke-miterlimit="10"/>
<path d="M1297.7 643.06C1323.29 643.06 1344.04 622.548 1344.04 597.247C1344.04 571.945 1323.29 551.434 1297.7 551.434C1272.11 551.434 1251.36 571.945 1251.36 597.247C1251.36 622.548 1272.11 643.06 1297.7 643.06Z" stroke="#F1F8FF" stroke-width="0.5" stroke-miterlimit="10"/>
<path d="M1390 643.062C1415.59 643.062 1436.34 622.55 1436.34 597.249C1436.34 571.947 1415.59 551.436 1390 551.436C1364.4 551.436 1343.66 571.947 1343.66 597.249C1343.66 622.55 1364.4 643.062 1390 643.062Z" stroke="#F1F8FF" stroke-width="0.5" stroke-miterlimit="10"/>
<path d="M1482.68 643.06C1508.27 643.06 1529.02 622.548 1529.02 597.247C1529.02 571.945 1508.27 551.434 1482.68 551.434C1457.09 551.434 1436.34 571.945 1436.34 597.247C1436.34 622.548 1457.09 643.06 1482.68 643.06Z" stroke="#F1F8FF" stroke-width="0.5" stroke-miterlimit="10"/>
<path d="M1575.36 643.06C1600.95 643.06 1621.7 622.548 1621.7 597.247C1621.7 571.945 1600.95 551.434 1575.36 551.434C1549.76 551.434 1529.02 571.945 1529.02 597.247C1529.02 622.548 1549.76 643.06 1575.36 643.06Z" stroke="#F1F8FF" stroke-width="0.5" stroke-miterlimit="10"/>
<path d="M1158.68 597.626C1184.27 597.626 1205.02 577.115 1205.02 551.813C1205.02 526.511 1184.27 506 1158.68 506C1133.09 506 1112.34 526.511 1112.34 551.813C1112.34 577.115 1133.09 597.626 1158.68 597.626Z" stroke="#F1F8FF" stroke-width="0.5" stroke-miterlimit="10"/>
<path d="M1251.36 597.626C1276.95 597.626 1297.7 577.115 1297.7 551.813C1297.7 526.511 1276.95 506 1251.36 506C1225.77 506 1205.02 526.511 1205.02 551.813C1205.02 577.115 1225.77 597.626 1251.36 597.626Z" stroke="#F1F8FF" stroke-width="0.5" stroke-miterlimit="10"/>
<path d="M1344.04 597.626C1369.63 597.626 1390.38 577.115 1390.38 551.813C1390.38 526.511 1369.63 506 1344.04 506C1318.45 506 1297.7 526.511 1297.7 551.813C1297.7 577.115 1318.45 597.626 1344.04 597.626Z" stroke="#F1F8FF" stroke-width="0.5" stroke-miterlimit="10"/>
<path d="M1436.34 597.626C1461.93 597.626 1482.68 577.115 1482.68 551.813C1482.68 526.511 1461.93 506 1436.34 506C1410.75 506 1390 526.511 1390 551.813C1390 577.115 1410.75 597.626 1436.34 597.626Z" stroke="#F1F8FF" stroke-width="0.5" stroke-miterlimit="10"/>
<path d="M1529.02 597.626C1554.61 597.626 1575.36 577.115 1575.36 551.813C1575.36 526.511 1554.61 506 1529.02 506C1503.42 506 1482.68 526.511 1482.68 551.813C1482.68 577.115 1503.42 597.626 1529.02 597.626Z" stroke="#F1F8FF" stroke-width="0.5" stroke-miterlimit="10"/>
<path d="M1621.7 597.626C1647.29 597.626 1668.04 577.115 1668.04 551.813C1668.04 526.511 1647.29 506 1621.7 506C1596.11 506 1575.36 526.511 1575.36 551.813C1575.36 577.115 1596.11 597.626 1621.7 597.626Z" stroke="#F1F8FF" stroke-width="0.5" stroke-miterlimit="10"/>
<path d="M1112.34 734.686C1137.93 734.686 1158.68 714.174 1158.68 688.873C1158.68 663.571 1137.93 643.06 1112.34 643.06C1086.75 643.06 1066 663.571 1066 688.873C1066 714.174 1086.75 734.686 1112.34 734.686Z" stroke="#F1F8FF" stroke-width="0.5" stroke-miterlimit="10"/>
<path d="M1205.02 734.686C1230.61 734.686 1251.36 714.174 1251.36 688.873C1251.36 663.571 1230.61 643.06 1205.02 643.06C1179.43 643.06 1158.68 663.571 1158.68 688.873C1158.68 714.174 1179.43 734.686 1205.02 734.686Z" stroke="#F1F8FF" stroke-width="0.5" stroke-miterlimit="10"/>
<path d="M1297.7 734.686C1323.29 734.686 1344.04 714.174 1344.04 688.873C1344.04 663.571 1323.29 643.06 1297.7 643.06C1272.11 643.06 1251.36 663.571 1251.36 688.873C1251.36 714.174 1272.11 734.686 1297.7 734.686Z" stroke="#F1F8FF" stroke-width="0.5" stroke-miterlimit="10"/>
<path d="M1390 734.686C1415.59 734.686 1436.34 714.174 1436.34 688.873C1436.34 663.571 1415.59 643.06 1390 643.06C1364.4 643.06 1343.66 663.571 1343.66 688.873C1343.66 714.174 1364.4 734.686 1390 734.686Z" stroke="#F1F8FF" stroke-width="0.5" stroke-miterlimit="10"/>
<path d="M1482.68 734.686C1508.27 734.686 1529.02 714.174 1529.02 688.873C1529.02 663.571 1508.27 643.06 1482.68 643.06C1457.09 643.06 1436.34 663.571 1436.34 688.873C1436.34 714.174 1457.09 734.686 1482.68 734.686Z" stroke="#F1F8FF" stroke-width="0.5" stroke-miterlimit="10"/>
<path d="M1575.36 734.686C1600.95 734.686 1621.7 714.174 1621.7 688.873C1621.7 663.571 1600.95 643.06 1575.36 643.06C1549.76 643.06 1529.02 663.571 1529.02 688.873C1529.02 714.174 1549.76 734.686 1575.36 734.686Z" stroke="#F1F8FF" stroke-width="0.5" stroke-miterlimit="10"/>
<path d="M1158.68 688.874C1184.27 688.874 1205.02 668.363 1205.02 643.061C1205.02 617.759 1184.27 597.248 1158.68 597.248C1133.09 597.248 1112.34 617.759 1112.34 643.061C1112.34 668.363 1133.09 688.874 1158.68 688.874Z" stroke="#F1F8FF" stroke-width="0.5" stroke-miterlimit="10"/>
<path d="M1251.36 688.874C1276.95 688.874 1297.7 668.363 1297.7 643.061C1297.7 617.759 1276.95 597.248 1251.36 597.248C1225.77 597.248 1205.02 617.759 1205.02 643.061C1205.02 668.363 1225.77 688.874 1251.36 688.874Z" stroke="#F1F8FF" stroke-width="0.5" stroke-miterlimit="10"/>
<path d="M1344.04 688.874C1369.63 688.874 1390.38 668.363 1390.38 643.061C1390.38 617.759 1369.63 597.248 1344.04 597.248C1318.45 597.248 1297.7 617.759 1297.7 643.061C1297.7 668.363 1318.45 688.874 1344.04 688.874Z" stroke="#F1F8FF" stroke-width="0.5" stroke-miterlimit="10"/>
<path d="M1436.34 688.874C1461.93 688.874 1482.68 668.363 1482.68 643.061C1482.68 617.759 1461.93 597.248 1436.34 597.248C1410.75 597.248 1390 617.759 1390 643.061C1390 668.363 1410.75 688.874 1436.34 688.874Z" stroke="#F1F8FF" stroke-width="0.5" stroke-miterlimit="10"/>
<path d="M1529.02 688.874C1554.61 688.874 1575.36 668.363 1575.36 643.061C1575.36 617.759 1554.61 597.248 1529.02 597.248C1503.42 597.248 1482.68 617.759 1482.68 643.061C1482.68 668.363 1503.42 688.874 1529.02 688.874Z" stroke="#F1F8FF" stroke-width="0.5" stroke-miterlimit="10"/>
<path d="M1621.7 688.874C1647.29 688.874 1668.04 668.363 1668.04 643.061C1668.04 617.759 1647.29 597.248 1621.7 597.248C1596.11 597.248 1575.36 617.759 1575.36 643.061C1575.36 668.363 1596.11 688.874 1621.7 688.874Z" stroke="#F1F8FF" stroke-width="0.5" stroke-miterlimit="10"/>
<path d="M1112.34 826.312C1137.93 826.312 1158.68 805.8 1158.68 780.499C1158.68 755.197 1137.93 734.686 1112.34 734.686C1086.75 734.686 1066 755.197 1066 780.499C1066 805.8 1086.75 826.312 1112.34 826.312Z" stroke="#F1F8FF" stroke-width="0.5" stroke-miterlimit="10"/>
<path d="M1205.02 826.312C1230.61 826.312 1251.36 805.8 1251.36 780.499C1251.36 755.197 1230.61 734.686 1205.02 734.686C1179.43 734.686 1158.68 755.197 1158.68 780.499C1158.68 805.8 1179.43 826.312 1205.02 826.312Z" stroke="#F1F8FF" stroke-width="0.5" stroke-miterlimit="10"/>
<path d="M1297.7 826.312C1323.29 826.312 1344.04 805.8 1344.04 780.499C1344.04 755.197 1323.29 734.686 1297.7 734.686C1272.11 734.686 1251.36 755.197 1251.36 780.499C1251.36 805.8 1272.11 826.312 1297.7 826.312Z" stroke="#F1F8FF" stroke-width="0.5" stroke-miterlimit="10"/>
<path d="M1390 826.313C1415.59 826.313 1436.34 805.801 1436.34 780.5C1436.34 755.198 1415.59 734.687 1390 734.687C1364.4 734.687 1343.66 755.198 1343.66 780.5C1343.66 805.801 1364.4 826.313 1390 826.313Z" stroke="#F1F8FF" stroke-width="0.5" stroke-miterlimit="10"/>
<path d="M1482.68 826.313C1508.27 826.313 1529.02 805.801 1529.02 780.5C1529.02 755.198 1508.27 734.687 1482.68 734.687C1457.09 734.687 1436.34 755.198 1436.34 780.5C1436.34 805.801 1457.09 826.313 1482.68 826.313Z" stroke="#F1F8FF" stroke-width="0.5" stroke-miterlimit="10"/>
<path d="M1575.36 826.313C1600.95 826.313 1621.7 805.801 1621.7 780.5C1621.7 755.198 1600.95 734.687 1575.36 734.687C1549.76 734.687 1529.02 755.198 1529.02 780.5C1529.02 805.801 1549.76 826.313 1575.36 826.313Z" stroke="#F1F8FF" stroke-width="0.5" stroke-miterlimit="10"/>
<path d="M1158.68 780.499C1184.27 780.499 1205.02 759.988 1205.02 734.686C1205.02 709.384 1184.27 688.873 1158.68 688.873C1133.09 688.873 1112.34 709.384 1112.34 734.686C1112.34 759.988 1133.09 780.499 1158.68 780.499Z" stroke="#F1F8FF" stroke-width="0.5" stroke-miterlimit="10"/>
<path d="M1251.36 780.499C1276.95 780.499 1297.7 759.988 1297.7 734.686C1297.7 709.384 1276.95 688.873 1251.36 688.873C1225.77 688.873 1205.02 709.384 1205.02 734.686C1205.02 759.988 1225.77 780.499 1251.36 780.499Z" stroke="#F1F8FF" stroke-width="0.5" stroke-miterlimit="10"/>
<path d="M1344.04 780.499C1369.63 780.499 1390.38 759.988 1390.38 734.686C1390.38 709.384 1369.63 688.873 1344.04 688.873C1318.45 688.873 1297.7 709.384 1297.7 734.686C1297.7 759.988 1318.45 780.499 1344.04 780.499Z" stroke="#F1F8FF" stroke-width="0.5" stroke-miterlimit="10"/>
<path d="M1436.34 780.499C1461.93 780.499 1482.68 759.988 1482.68 734.686C1482.68 709.384 1461.93 688.873 1436.34 688.873C1410.75 688.873 1390 709.384 1390 734.686C1390 759.988 1410.75 780.499 1436.34 780.499Z" stroke="#F1F8FF" stroke-width="0.5" stroke-miterlimit="10"/>
<path d="M1529.02 780.499C1554.61 780.499 1575.36 759.988 1575.36 734.686C1575.36 709.384 1554.61 688.873 1529.02 688.873C1503.42 688.873 1482.68 709.384 1482.68 734.686C1482.68 759.988 1503.42 780.499 1529.02 780.499Z" stroke="#F1F8FF" stroke-width="0.5" stroke-miterlimit="10"/>
<path d="M1621.7 780.499C1647.29 780.499 1668.04 759.988 1668.04 734.686C1668.04 709.384 1647.29 688.873 1621.7 688.873C1596.11 688.873 1575.36 709.384 1575.36 734.686C1575.36 759.988 1596.11 780.499 1621.7 780.499Z" stroke="#F1F8FF" stroke-width="0.5" stroke-miterlimit="10"/>
<path d="M1158.68 872.626C1184.27 872.626 1205.02 852.115 1205.02 826.813C1205.02 801.511 1184.27 781 1158.68 781C1133.09 781 1112.34 801.511 1112.34 826.813C1112.34 852.115 1133.09 872.626 1158.68 872.626Z" stroke="#F1F8FF" stroke-width="0.5" stroke-miterlimit="10"/>
<path d="M1251.36 872.626C1276.95 872.626 1297.7 852.115 1297.7 826.813C1297.7 801.511 1276.95 781 1251.36 781C1225.77 781 1205.02 801.511 1205.02 826.813C1205.02 852.115 1225.77 872.626 1251.36 872.626Z" stroke="#F1F8FF" stroke-width="0.5" stroke-miterlimit="10"/>
<path d="M1344.04 872.626C1369.63 872.626 1390.38 852.115 1390.38 826.813C1390.38 801.511 1369.63 781 1344.04 781C1318.45 781 1297.7 801.511 1297.7 826.813C1297.7 852.115 1318.45 872.626 1344.04 872.626Z" stroke="#F1F8FF" stroke-width="0.5" stroke-miterlimit="10"/>
<path d="M1436.34 872.626C1461.93 872.626 1482.68 852.115 1482.68 826.813C1482.68 801.511 1461.93 781 1436.34 781C1410.75 781 1390 801.511 1390 826.813C1390 852.115 1410.75 872.626 1436.34 872.626Z" stroke="#F1F8FF" stroke-width="0.5" stroke-miterlimit="10"/>
<path d="M1529.02 872.626C1554.61 872.626 1575.36 852.115 1575.36 826.813C1575.36 801.511 1554.61 781 1529.02 781C1503.42 781 1482.68 801.511 1482.68 826.813C1482.68 852.115 1503.42 872.626 1529.02 872.626Z" stroke="#F1F8FF" stroke-width="0.5" stroke-miterlimit="10"/>
<path d="M1621.7 872.626C1647.29 872.626 1668.04 852.115 1668.04 826.813C1668.04 801.511 1647.29 781 1621.7 781C1596.11 781 1575.36 801.511 1575.36 826.813C1575.36 852.115 1596.11 872.626 1621.7 872.626Z" stroke="#F1F8FF" stroke-width="0.5" stroke-miterlimit="10"/>
</g>
</g>
<defs>
<clipPath id="clip0_1906_8032">
<rect width="1600" height="800" fill="white"/>
</clipPath>
</defs>
</svg>
